<?xml version="1.0" encoding="utf-8"?>
<!-- Generator: Adobe Illustrator 24.3.0, SVG Export Plug-In . SVG Version: 6.00 Build 0)  -->
<svg version="1.1" xmlns="http://www.w3.org/2000/svg" xmlns:xlink="http://www.w3.org/1999/xlink" x="0px" y="0px"
	 viewBox="0 0 750 500" style="enable-background:new 0 0 750 500;" xml:space="preserve">
<style type="text/css">
	.st0{fill:#FFFFFF;}
	.st1{fill:#DAE6ED;}
	.st2{fill:url(#SVGID_1_);}
	.st3{fill:url(#SVGID_2_);}
	.st4{fill:#7DA6E2;}
	.st5{fill:url(#SVGID_3_);}
	.st6{fill:url(#SVGID_4_);}
	.st7{fill:url(#SVGID_5_);}
	.st8{fill:none;stroke:#DAE6ED;stroke-width:2;stroke-linecap:round;stroke-linejoin:round;}
	.st9{fill:none;stroke:#DAE6ED;stroke-width:2;stroke-linecap:round;stroke-linejoin:round;stroke-dasharray:4.0153,5.0191;}
	.st10{fill:none;stroke:#DAE6ED;stroke-width:2;stroke-linecap:round;stroke-linejoin:round;stroke-dasharray:4.1543,5.1929;}
	.st11{fill:none;stroke:#DAE6ED;stroke-width:2;stroke-linecap:round;stroke-linejoin:round;stroke-dasharray:2.8571,3.5714;}
	.st12{fill:none;stroke:#DAE6ED;stroke-width:2;stroke-linecap:round;stroke-linejoin:round;stroke-dasharray:3.8751,4.8439;}
	.st13{fill:none;stroke:#DAE6ED;stroke-width:2;stroke-linecap:round;stroke-linejoin:round;stroke-dasharray:3.9936,4.992;}
	.st14{fill:none;stroke:#DAE6ED;stroke-width:2;stroke-linecap:round;stroke-linejoin:round;stroke-dasharray:3.7689,4.7111;}
	.st15{fill:none;stroke:#DAE6ED;stroke-width:2;stroke-linecap:round;stroke-linejoin:round;stroke-dasharray:3.5959,4.4949;}
	.st16{fill:#FFC6AD;}
	.st17{fill:url(#SVGID_6_);}
	.st18{fill:#AB8451;}
	.st19{fill:#F2B096;}
	.st20{fill:#112B46;}
	.st21{fill:url(#SVGID_7_);}
	.st22{fill:#E5B84A;}
	.st23{fill:#D3A131;}
	.st24{fill:#F7F9FA;}
	.st25{fill:url(#SVGID_8_);}
	.st26{fill:#E4E5E6;}
	.st27{fill:#7A3737;}
	.st28{fill:#C1D1DB;}
	.st29{fill:#858AEE;}
	.st30{fill:#F9CF5B;}
	.st31{fill:#EA807D;}
	.st32{fill:url(#SVGID_9_);}
	.st33{fill:url(#SVGID_10_);}
	.st34{fill:#AFB0F1;}
	.st35{fill:#BCDFF2;}
	.st36{fill:none;stroke:#FFFFFF;stroke-width:6;stroke-miterlimit:10;}
	.st37{fill:none;stroke:#EA807D;stroke-width:6;stroke-miterlimit:10;}
	.st38{fill:url(#SVGID_11_);}
	.st39{fill:#414042;}
	.st40{fill:#DEBB94;}
	.st41{fill:#825E40;}
	.st42{fill:url(#SVGID_12_);}
	.st43{fill:#BB864C;}
	.st44{fill:url(#SVGID_13_);}
	.st45{fill:url(#SVGID_14_);}
	.st46{fill:url(#SVGID_15_);}
	.st47{fill:url(#SVGID_16_);}
	.st48{fill:url(#SVGID_17_);}
	.st49{fill:url(#SVGID_18_);}
	.st50{fill:url(#SVGID_19_);}
	.st51{fill:url(#SVGID_20_);}
	.st52{fill:url(#SVGID_21_);}
	.st53{fill:none;stroke:#EA4F93;stroke-width:2;stroke-miterlimit:10;}
	.st54{fill:none;stroke:#858AEE;stroke-width:2;stroke-linecap:round;stroke-miterlimit:10;}
	.st55{fill:#FFC8AF;}
	.st56{fill:#2A1C7A;}
	.st57{fill:url(#SVGID_22_);}
	.st58{fill:#F2B49C;}
	.st59{fill:#E0BD96;}
	.st60{fill:url(#SVGID_23_);}
	.st61{fill:url(#SVGID_24_);}
	.st62{fill:url(#SVGID_25_);}
	.st63{fill:url(#SVGID_26_);}
	.st64{fill:#B7DBF2;}
	.st65{fill:#9EC5F8;}
	.st66{fill:url(#SVGID_27_);}
	.st67{fill:none;stroke:#858AEE;stroke-width:6;stroke-miterlimit:10;}
</style>
<g id="BACKGROUND">
	<g>
		<rect class="st0" width="750" height="500"/>
		<path class="st1" d="M670.1,452.2H79.9c-3,0-5.5-2.5-5.5-5.5l0,0c0-3,2.5-5.5,5.5-5.5h590.3c3,0,5.5,2.5,5.5,5.5l0,0
			C675.7,449.8,673.2,452.2,670.1,452.2z"/>
		<linearGradient id="SVGID_1_" gradientUnits="userSpaceOnUse" x1="368.797" y1="162.7502" x2="368.797" y2="449.7691">
			<stop  offset="0" style="stop-color:#DAE6ED"/>
			<stop  offset="1" style="stop-color:#F7F9FA"/>
		</linearGradient>
		<path class="st2" d="M617,431.7c-1,3.3-2,6.5-3,9.9c0,0-501.3,0-501.3,0c-5.6-25.3-3.3-60.3,13.9-80.9
			c7.8-9.4,16.9-19.5,16.5-31.6c-0.3-10.5-7.6-19.2-13.4-28c-10.8-16.2-17.5-37.2-9.8-55.1c8.8-20.4,33.3-30.9,41.9-51.3
			c5.5-13.1,3.2-27.9,8-41.1c4.4-12.2,14.3-22.3,25.4-28.8c13.4-7.8,29.1-11,44.7-11.7c28.9-1.3,54.4,6.8,79.5,20.5
			c37.3,20.3,73.2,41,117.3,28.3c38.2-11.1,102.9-62.6,140.2-21.7c14.6,16,5.1,38.9,15.2,56.6c4,7,11.4,11.5,17.4,16.9
			c15.4,13.9,22,33,14.8,52.6c-6.2,17-20.3,32.1-19.2,51.1c1,17.2,18,29,21.2,45.9C630.6,386.2,623.8,409.9,617,431.7z"/>
		<g>
			<path class="st1" d="M620.8,279.8c3,1.8,6.2,2.9,9.6,3.2l-0.3,3.2c2.9,0.3,5.8,0.1,8.7-0.6l-0.8-3.1c3.2-0.8,6.3-2.3,9.1-4.5
				l2,2.5l0,0c1.9-1.6,3.5-3.3,4.9-5.3c0.3-0.4,0.6-0.8,0.8-1.3l-2.8-1.7c1.8-3,2.9-6.2,3.2-9.6l3.2,0.3c0.3-2.9,0.1-5.8-0.6-8.7
				l-3.1,0.8c-0.8-3.2-2.3-6.3-4.5-9.1l2.5-2l0,0c-1.6-1.9-3.3-3.5-5.3-4.9c-0.4-0.3-0.8-0.6-1.3-0.8l-1.7,2.8
				c-3-1.8-6.2-2.9-9.6-3.2l0.3-3.2c-2.9-0.3-5.8-0.1-8.7,0.6l0.8,3.1c-3.2,0.8-6.3,2.3-9.1,4.5l-2-2.5l-0.1,0.1
				c-1.9,1.6-3.5,3.3-4.9,5.3c-0.3,0.4-0.6,0.9-0.9,1.3l2.8,1.7c-1.8,3-2.9,6.2-3.2,9.6l-3.2-0.3c-0.3,2.9-0.1,5.8,0.6,8.7l3.1-0.8
				c0.8,3.2,2.3,6.3,4.5,9.1l-2.5,2l0,0c1.6,1.9,3.3,3.5,5.3,4.9c0.4,0.3,0.9,0.6,1.3,0.8L620.8,279.8z M619.5,244.3L619.5,244.3
				l0.4,0.5L619.5,244.3z M622,269.1c-4-4.9-4.1-11.7-0.7-16.6c0.7-1,1.6-2,2.6-2.8c4.9-4,11.7-4.1,16.6-0.7c1,0.7,2,1.6,2.8,2.6
				c4,4.9,4.1,11.7,0.7,16.6c-0.7,1-1.6,2-2.6,2.8c-4.9,4-11.7,4.1-16.6,0.7C623.8,271,622.9,270.1,622,269.1z"/>
			<polygon class="st1" points="614.6,325.5 614.6,325.5 614.6,325.5 			"/>
			<path class="st1" d="M606.3,318l0.9-2c1.6,0.7,3.2,1.1,4.9,1.3l-0.2,2.2c2.8,0.3,5.7-0.1,8.5-1.1l-0.8-2c1.5-0.6,3-1.4,4.4-2.5
				l1.4,1.7l0.1-0.1c1.3-1.1,2.5-2.4,3.4-3.7c0.7-1,1.2-2,1.7-3l-2-0.9c0.7-1.6,1.1-3.2,1.3-4.9l2.2,0.2c0.3-2.8-0.1-5.7-1.1-8.5
				l-2,0.8c-0.6-1.5-1.4-3-2.5-4.4l1.7-1.4l-0.1-0.1c-1.1-1.3-2.3-2.5-3.7-3.4c-0.9-0.7-1.9-1.2-3-1.7l-0.9,2
				c-1.6-0.7-3.2-1.1-4.9-1.3l0.2-2.2l0,0c-2.8-0.3-5.7,0-8.5,1.1l0.8,2c-1.5,0.6-3,1.4-4.4,2.5l-1.4-1.7l0,0L602,287
				c-1.3,1.1-2.5,2.4-3.4,3.7c-0.7,1-1.3,2-1.7,3.1l2,0.9c-0.7,1.6-1.1,3.2-1.3,4.9l-2.2-0.2c-0.3,2.8,0.1,5.7,1.2,8.5l2-0.8
				c0.6,1.5,1.4,3,2.5,4.4l-1.7,1.4l0,0c1.1,1.3,2.4,2.5,3.7,3.4C604.2,316.9,605.2,317.5,606.3,318z M604.7,295
				c0.6-0.8,1.2-1.5,2-2.2c3.9-3.2,9.2-3.2,13.2-0.5c0.8,0.6,1.5,1.2,2.2,2c3.2,3.9,3.2,9.2,0.5,13.2c-0.6,0.8-1.2,1.5-2,2.2
				c-3.9,3.2-9.2,3.2-13.2,0.5c-0.8-0.6-1.6-1.2-2.2-2C602.1,304.3,602,298.9,604.7,295z"/>
		</g>
		<g>
			<g>
				
					<linearGradient id="SVGID_2_" gradientUnits="userSpaceOnUse" x1="602.6163" y1="322.9411" x2="602.6163" y2="395.8169" gradientTransform="matrix(0.8879 -0.4601 0.4601 0.8879 -107.4762 316.3155)">
					<stop  offset="0" style="stop-color:#C4DDF0"/>
					<stop  offset="0.999" style="stop-color:#99B5FA"/>
				</linearGradient>
				<path class="st3" d="M620.7,327c-1-2-2.2-3.9-3.6-5.5c-2.7,6.9-5.8,13.1-11.6,18.1c4.2-6.9,6.7-13.5,8.4-21.4
					c-1.1-1-2.3-2-3.5-2.8c-0.5,1.7-1.1,3.4-1.9,4.9c-0.7,1.3-1.5,2.5-2.3,3.6c1-3.2,1.7-6.6,1.9-10c-1.6-0.9-3.2-1.7-4.9-2.3
					c-2,1.4-4.1,2.5-6,3.5c-0.5,2.6-0.7,5.4-0.6,8c-0.6-2.3-1.1-4.6-1.3-7.1c-1.6,0.8-3.2,1.6-4.7,2.5c-0.8,4-1,8.1-0.8,12.1
					c-1-3.4-1.6-7-1.8-10.6c-1.3,0.8-2.6,1.7-4,2.8c-0.2,8.9,0.8,17.3,3.9,25.7c-1.9-2.8-3.5-6-4.9-9.2c-0.7-1.6-1.4-3.2-1.8-4.8
					c-0.8-2.7-1-5.5-1.1-8.4c-1.7,1.5-3.4,3.1-4.9,4.7c0,0.4,0,0.8,0.1,1.2c0.1,1,0.3,2,0.6,3.1c0.4,2,0.9,4.1,1.4,6.2
					c0.9,3.3,2.2,6.5,3.3,9.9c0.4,1,0.7,2.1,1.1,3.1c-2.3-2.7-4.2-5.8-5.7-9.1c-1.7-3.6-2.9-7.4-3.7-11.2c-1.4,1.7-2.8,3.5-4,5.3
					c0.9,5.9,1.7,12.1,4.2,17.5c0.6,1.2,1.3,2.4,2,3.5c-1.5-0.9-2.8-2-3.9-3.4c-1.4-1.8-2.3-4.1-3.2-6.2c-0.8-1.9-1.6-3.9-2.2-5.8
					c-1.8,3.9-3.1,8.3-3.9,12.4c0.6,1.6,1.5,3.2,2.6,4.5c0.8,1,1.7,1.9,2.5,2.9c2.4,2.8,4,6.3,5.7,9.6c-2.3-1.4-4.7-2.7-6.8-4.5
					c-2-1.7-3.8-3.7-5.3-5.8c-0.8,5.6-1.1,11.6,0.8,17c0.9,2.7,2.5,5.1,4.5,7c1.8,1.7,5.8,3.5,8.6,3.2c1.4,4.2,6.2,8,10.6,8.3
					c6.8,0.5,13.8-2.7,19-6.9c0.2-0.1,0.4-0.3,0.5-0.4c-1.1-0.1-2.1-0.3-3.1-0.4c-4.1-0.4-9.6-1.9-12.8-4.9
					c8.1,2.3,15.5,0.8,23.2-2.1c4-4.9,7.2-10.4,9.5-16.3c-1,0.9-2.1,1.8-3.2,2.6c-6,4.4-14,5.6-21.3,4.3
					c10.7-3.1,19.5-9.7,27.5-17.2c1-4.6,1.4-9.8,1-14.5c-0.8,1.6-1.7,3.2-2.4,4.8c-1.5,3.2-2.7,6.7-4.8,9.2c-2.8,3.4-6.4,4.4-9.6,5
					c-1.7,0.3-3.3,0.5-5,0.7c2.1-1.1,4.2-2.4,6.2-3.8c1.8-1.2,3.6-2.6,5.3-4.3c4.6-4.6,7.6-10.6,9.7-16.7c-0.5-2.8-1.2-5.4-2.1-7.9
					c-3.8,6.9-7.8,12.3-13.7,17.5C613.9,342,618.1,334.7,620.7,327z"/>
				<path class="st4" d="M586,380.9c1.2,0.2,2.5,0.4,3.7,0.6c2.5,0.3,5,0.5,7.6,0.4c2.6,0,5.2-0.3,7.9-0.7c2.7-0.5,8.1-2.2,8.1-2.2
					c0,0-5.4,1.6-8.1,1.9c-2.6,0.4-5.3,0.5-7.8,0.5c-2.5,0-5.1-0.3-7.5-0.6c-1.2-0.2-2.4-0.4-3.6-0.7c-1.1-0.3-1.6-0.4-2.7-0.7
					c2.1-3.4,3.1-5.2,4.9-8.8c1.6,0.2,3.3,0.3,4.9,0.2c1.9-0.1,3.8-0.4,5.7-0.8c3.8-0.8,7.7-2.2,11.5-4.2c-3.8,1.8-7.7,3-11.4,3.6
					c-1.9,0.3-3.7,0.5-5.6,0.5c-1.6,0-3.1-0.1-4.6-0.3c1.7-3.4,2.5-5.2,4-8.7c2.2-0.2,4.5-0.6,6.7-1.5c2.4-0.9,4.8-2.1,7.1-3.6
					c2.3-1.5,4.5-3.4,6.6-5.4c2.1-2.1,5.9-7,5.9-7c0,0-3.9,4.9-6,6.9c-2.1,2-4.4,3.8-6.6,5.2c-2.3,1.5-4.7,2.6-7,3.4
					c-2.1,0.8-4.3,1.1-6.4,1.3c1.5-3.7,2.2-5.6,3.5-9.5c1.9-0.8,3.7-1.7,5.5-2.9c1.8-1.3,3.7-2.8,5.3-4.5c1.7-1.7,3.3-3.6,4.7-5.7
					c1.5-2.1,4-6.8,4-6.8c0,0-2.6,4.6-4.1,6.7c-1.5,2-3.1,3.9-4.8,5.6c-1.7,1.7-3.5,3.1-5.3,4.3c-1.6,1.1-3.4,1.9-5.1,2.6
					c1.3-4,1.8-6,2.8-10.2c2.2-2,4.1-4.4,5.9-7.1c1.8-2.7,4.5-9,4.5-9c0,0-2.8,6.2-4.6,8.8c-1.7,2.5-3.6,4.6-5.6,6.5
					c1.4-6,2.3-12.1,2.8-18.3c-1,8.2-2.6,16.1-4.8,24c-0.7-1.5-1.3-3-1.8-4.6c-0.3-0.9-0.6-1.8-0.8-2.7c-0.2-0.9-0.5-1.9-0.7-2.8
					c-0.4-1.9-0.8-3.8-1-5.8c-0.2-1.9-0.5-5.9-0.5-5.9c0,0,0.2,4,0.4,5.9c0.2,2,0.6,3.9,0.9,5.8c0.2,1,0.4,1.9,0.6,2.8
					c0.3,0.9,0.5,1.9,0.8,2.8c0.5,1.8,1.2,3.4,1.9,5c-1.1,3.7-1.8,5.5-3.2,9.1c-1.1-1.9-2.2-3.9-3-6c-1-2.3-1.8-4.8-2.5-7.3
					c-0.7-2.5-1.3-5.1-1.7-7.7c-0.4-2.6-0.9-7.9-0.9-7.9c0,0,0.3,5.3,0.7,7.9c0.4,2.6,0.9,5.2,1.6,7.8c0.7,2.5,1.4,5.1,2.4,7.5
					c0.9,2.3,2,4.5,3.1,6.6c-1.3,3.3-2,4.9-3.5,8.1c-0.3-0.4-0.4-0.6-0.7-1c-0.2-0.3-0.3-0.5-0.6-0.8c-0.2-0.4-0.3-0.5-0.5-0.9
					c-0.4-0.7-0.6-1.1-1.1-1.7c-0.4-0.7-0.6-1.1-1-1.8c-1.3-2.4-2.4-5-3.4-7.6c-1-2.6-2-5.2-2.9-7.9c-0.9-2.7-2.4-8-2.4-8
					c0,0,1.4,5.4,2.2,8.1c0.8,2.7,1.7,5.4,2.7,8c1,2.7,2.1,5.3,3.3,7.8c0.4,0.8,0.6,1.1,0.9,1.9c0.4,0.7,0.6,1.1,1,1.8
					c0.2,0.4,0.3,0.5,0.5,0.9c0.2,0.3,0.3,0.5,0.6,0.9c0.3,0.5,0.5,0.8,0.9,1.3c-0.9,1.9-1.4,2.9-2.4,4.7c-1.5-1.4-3-2.9-4.4-4.6
					c-1.5-1.9-2.9-3.8-4.2-5.9c-1.3-2.1-2.5-4.2-3.6-6.3c-1.1-2.1-3.2-6.5-3.2-6.5c0,0,2,4.5,3,6.7s2.3,4.4,3.5,6.5
					c1.2,2.1,2.6,4.2,4,6.1c1.3,1.8,2.8,3.4,4.4,5c-1.2,2.1-1.8,3.2-3,5.3c-0.7-0.5-1.5-1-2.2-1.5c-0.9-0.7-1.8-1.3-2.7-2.1
					c-1.8-1.4-3.4-2.9-5-4.5c-1.6-1.6-3.2-3.3-4.6-5c-1.5-1.7-4.2-5.4-4.2-5.4c0,0,2.6,3.8,4,5.6c1.4,1.8,2.9,3.5,4.5,5.2
					c1.6,1.6,3.2,3.3,4.9,4.8c0.8,0.8,1.7,1.5,2.6,2.2c0.7,0.6,1.4,1.1,2.1,1.6c-2.6,4.3-4,6.3-7.1,10.3c-1.7-0.5-3.2-1.3-4.6-2.3
					c-1.6-1.2-3-2.6-4.2-4.2c-1.2-1.6-2.4-3.3-3.4-5.1c-1-1.8-2.8-5.5-2.8-5.5c0,0,1.6,3.8,2.6,5.6c1,1.8,2,3.6,3.2,5.3
					c1.2,1.6,2.6,3.2,4.1,4.5c1.3,1.1,2.8,1.9,4.4,2.5c-4.4,5.8-9.5,11.3-14.8,16.3c0.6,0.7,0.9,1,1.6,1.7
					c5.4-5.3,10.4-10.9,14.8-17c1,0.9,2,1.8,3.1,2.6c1.3,0.9,2.8,1.7,4.4,2.3c1.5,0.6,3.2,1.1,4.9,1.4c1.7,0.3,3.5,0.4,5.3,0.3
					c-1.8,0.1-3.6-0.1-5.2-0.5c-1.7-0.4-3.3-0.9-4.7-1.6c-1.5-0.7-2.9-1.6-4.2-2.5c-1.1-0.8-2.1-1.7-3-2.7c2-2.8,3-4.2,4.8-7.2
					C584.3,380.5,584.8,380.6,586,380.9z"/>
			</g>
		</g>
		<g>
			<g>
				<linearGradient id="SVGID_3_" gradientUnits="userSpaceOnUse" x1="616.2099" y1="353.3014" x2="616.2099" y2="434.9616">
					<stop  offset="0" style="stop-color:#C4DDF0"/>
					<stop  offset="0.999" style="stop-color:#99B5FA"/>
				</linearGradient>
				<path class="st5" d="M659.9,377.5c0-2.6-0.2-5-0.7-7.3c-6.3,5.5-12.5,10.1-20.8,12c7.8-4.7,13.6-9.9,19.4-16.9
					c-0.6-1.6-1.3-3.2-2.1-4.6c-1.4,1.5-2.9,2.8-4.4,3.9c-1.3,1-2.7,1.8-4.2,2.4c2.7-2.6,5.1-5.7,7.1-9c-1.1-1.7-2.3-3.3-3.7-4.8
					c-2.7,0.3-5.3,0.4-7.8,0.4c-1.8,2.4-3.4,5-4.8,7.7c0.5-2.6,1.3-5.2,2.4-7.7c-2,0-4,0-6,0c-2.8,3.6-5.2,7.5-7,11.6
					c0.7-3.9,2-7.8,3.6-11.4c-1.8,0.1-3.5,0.4-5.4,0.7c-4.8,8.7-8.1,17.6-9.3,27.6c-0.5-3.8-0.4-7.8-0.2-11.7
					c0.1-1.9,0.3-3.8,0.7-5.7c0.6-3.1,1.8-6,3.2-8.9c-2.5,0.6-5,1.3-7.3,2.1c-0.2,0.4-0.4,0.8-0.5,1.2c-0.4,1.1-0.7,2.2-1,3.3
					c-0.6,2.3-1.3,4.6-1.7,6.9c-0.8,3.8-1.2,7.6-1.8,11.5c-0.2,1.2-0.4,2.5-0.5,3.7c-0.9-3.9-1.2-7.9-1-12c0.2-4.4,0.9-8.8,2.1-13
					c-2.3,0.9-4.6,2-6.7,3.2c-2.1,6.4-4.5,12.9-4.8,19.6c-0.1,1.5,0,3,0.2,4.5c-1-1.7-1.8-3.4-2.1-5.4c-0.5-2.6-0.2-5.3,0-7.9
					c0.2-2.3,0.4-4.7,0.8-6.9c-3.8,2.9-7.4,6.6-10.3,10.3c-0.2,2-0.1,3.9,0.3,5.9c0.3,1.4,0.7,2.8,1,4.2c0.9,4,0.7,8.3,0.7,12.5
					c-1.6-2.6-3.2-5.1-4.4-7.9c-1.1-2.7-1.8-5.6-2.2-8.5c-3.7,5.2-7,11-8,17.3c-0.5,3.1-0.1,6.4,0.9,9.3c0.9,2.6,4,6.5,6.9,7.6
					c-0.8,4.9,2.1,11.1,6.3,13.7c6.5,4,15.1,4.5,22.4,3c0.3-0.1,0.5-0.1,0.8-0.2c-1-0.6-2-1.3-2.9-2c-3.8-2.5-8.6-6.9-10.2-11.5
					c6.9,6.5,15,8.8,24.2,9.9c6.5-2.8,12.6-6.7,17.9-11.4c-1.5,0.4-3,0.7-4.5,0.9c-8.2,1.3-16.9-1.7-23.4-6.7
					c12.2,2.5,24.4,0.5,36.2-3c3.3-4.1,6.4-9,8.5-13.9c-1.6,1.1-3.3,2.3-4.9,3.6c-3.1,2.4-6.2,5.2-9.5,6.7c-4.5,2-8.6,1.1-12.2,0
					c-1.8-0.6-3.6-1.2-5.3-1.9c2.7-0.1,5.4-0.2,8.1-0.6c2.4-0.3,5-0.7,7.5-1.5c6.9-2.2,13-6.7,18.3-11.6c1-3,1.6-6,1.9-9
					c-7.3,4.9-14.1,8.2-22.7,10.3C645.4,388.9,653.3,383.8,659.9,377.5z"/>
				<path class="st4" d="M597.6,413.2c1.1,0.8,2.2,1.7,3.4,2.5c2.3,1.5,4.8,3.1,7.4,4.3c2.6,1.3,5.3,2.4,8.2,3.4
					c2.9,0.9,9.2,2,9.2,2c0,0-6.2-1.2-9-2.2c-2.8-1-5.5-2.2-8-3.6c-2.5-1.3-4.9-2.9-7.1-4.5c-1.1-0.8-2.2-1.7-3.3-2.5
					c-0.9-0.8-1.4-1.2-2.3-2c3.9-2.3,5.8-3.6,9.4-6.2c1.5,1,3.1,1.9,4.8,2.7c1.9,0.9,3.9,1.6,6,2.2c4.2,1.1,8.7,1.8,13.5,1.8
					c-4.7-0.2-9.1-1-13.2-2.3c-2-0.6-4-1.4-5.8-2.3c-1.6-0.8-3-1.7-4.4-2.7c3.5-2.5,5.2-3.8,8.5-6.6c2.3,0.9,4.8,1.7,7.5,2
					c2.8,0.3,5.8,0.4,8.9,0c3.1-0.4,6.2-1,9.4-2c3.2-1,9.5-4,9.5-4c0,0-6.3,2.8-9.5,3.8c-3.1,0.9-6.3,1.5-9.3,1.8
					c-3,0.3-6,0.2-8.7-0.2c-2.5-0.3-4.8-1.1-7-2c3.4-2.9,5.1-4.5,8.3-7.6c2.3,0.2,4.6,0.2,7-0.1c2.5-0.3,5.1-0.9,7.6-1.7
					c2.6-0.8,5.1-1.9,7.7-3.2c2.5-1.3,7.4-4.7,7.4-4.7c0,0-4.9,3.3-7.5,4.5c-2.5,1.3-5.1,2.3-7.6,3c-2.5,0.8-5.1,1.3-7.5,1.5
					c-2.2,0.2-4.3,0.2-6.4,0c3.3-3.3,4.9-5.1,8-8.7c3.2-0.9,6.4-2.3,9.5-4c3.2-1.8,9.1-6.6,9.1-6.6c0,0-6,4.7-9.1,6.4
					c-2.9,1.6-5.9,2.8-8.9,3.6c4.4-5.3,8.5-10.9,12.2-16.7c-5.3,7.6-10.9,14.6-17.2,21.4c0.1-1.8,0.2-3.6,0.5-5.5
					c0.1-1,0.4-2.1,0.6-3.1c0.3-1,0.5-2.1,0.8-3.1c0.6-2.1,1.2-4.2,2-6.2c0.8-2.1,2.5-6.1,2.5-6.1c0,0-1.9,4-2.7,6.1
					c-0.8,2.1-1.5,4.2-2.1,6.2c-0.3,1-0.6,2.1-0.8,3.2c-0.2,1.1-0.5,2.1-0.6,3.2c-0.4,2-0.6,4-0.7,6c-3,3.1-4.6,4.6-7.8,7.5
					c-0.1-2.5-0.1-5,0.1-7.6c0.2-2.8,0.7-5.7,1.2-8.6c0.6-2.9,1.3-5.7,2.2-8.5c0.9-2.8,3.2-8.3,3.2-8.3c0,0-2.4,5.5-3.4,8.3
					c-1,2.8-1.8,5.7-2.4,8.5c-0.6,2.9-1.2,5.8-1.4,8.7c-0.3,2.8-0.3,5.4-0.3,8.1c-3,2.6-4.5,3.8-7.6,6.2c-0.1-0.5-0.1-0.8-0.2-1.3
					c-0.1-0.4-0.1-0.7-0.2-1.1c0-0.5,0-0.7-0.1-1.1c-0.1-0.9-0.1-1.4-0.2-2.3c0-0.9,0-1.4,0-2.3c0-3.1,0.2-6.2,0.5-9.3
					c0.3-3.1,0.7-6.2,1.2-9.3c0.5-3.1,1.8-9.2,1.8-9.2c0,0-1.4,6.1-2,9.2c-0.6,3.1-1.1,6.2-1.5,9.4c-0.4,3.1-0.7,6.3-0.8,9.4
					c0,0.9,0,1.4-0.1,2.4c0,0.9,0.1,1.4,0.1,2.3c0,0.5,0,0.7,0,1.2c0,0.5,0.1,0.7,0.1,1.1c0.1,0.7,0.1,1.1,0.2,1.8
					c-1.9,1.4-2.9,2.1-4.9,3.5c-0.8-2.2-1.5-4.5-2-6.8c-0.5-2.6-0.9-5.3-1.1-8c-0.2-2.7-0.3-5.4-0.4-8.2c0-2.7,0.2-8.2,0.2-8.2
					c0,0-0.4,5.4-0.4,8.2c-0.1,2.7,0,5.5,0.1,8.2c0.1,2.7,0.4,5.5,0.8,8.2c0.4,2.5,1,4.9,1.8,7.2c-2.3,1.5-3.4,2.3-5.8,3.7
					c-0.5-0.9-1-1.7-1.4-2.6c-0.5-1.1-1.1-2.2-1.6-3.4c-1-2.3-1.9-4.7-2.7-7.1c-0.8-2.4-1.5-4.9-2-7.3c-0.6-2.5-1.4-7.5-1.4-7.5
					c0,0,0.6,5.1,1.1,7.6c0.5,2.5,1.1,5,1.8,7.5c0.7,2.4,1.5,4.9,2.4,7.3c0.4,1.2,1,2.4,1.5,3.5c0.4,0.9,0.8,1.8,1.3,2.7
					c-4.8,2.9-7.3,4.2-12.3,6.6c-1.4-1.4-2.6-2.9-3.4-4.7c-0.9-2-1.6-4.2-2-6.4c-0.4-2.2-0.6-4.5-0.7-6.8c-0.1-2.3,0.1-6.9,0.1-6.9
					c0,0-0.3,4.6-0.3,6.9c0,2.3,0.1,4.6,0.5,6.9c0.3,2.2,0.9,4.5,1.8,6.6c0.7,1.7,1.8,3.3,3.1,4.8c-7.4,3.5-15.2,6.3-23.1,8.5
					c0.3,1,0.4,1.5,0.7,2.5c8-2.5,15.9-5.5,23.5-9.3c0.5,1.4,1.1,2.8,1.8,4.1c0.9,1.6,1.9,3.2,3.1,4.6c1.2,1.4,2.6,2.7,4.2,3.9
					c1.6,1.2,3.3,2.2,5.2,3c-1.9-0.9-3.5-2-4.9-3.2c-1.5-1.2-2.8-2.6-3.9-4c-1.1-1.5-2.1-3-2.9-4.6c-0.6-1.3-1.1-2.8-1.6-4.2
					c3.5-1.8,5.2-2.7,8.5-4.7C596,411.9,596.6,412.3,597.6,413.2z"/>
			</g>
		</g>
		<g>
			<g>
				
					<linearGradient id="SVGID_4_" gradientUnits="userSpaceOnUse" x1="74.1492" y1="353.3014" x2="74.1492" y2="434.9616" gradientTransform="matrix(-1 0 0 1 233.889 0)">
					<stop  offset="0" style="stop-color:#C4DDF0"/>
					<stop  offset="0.999" style="stop-color:#99B5FA"/>
				</linearGradient>
				<path class="st6" d="M116,377.5c0-2.6,0.2-5,0.7-7.3c6.3,5.5,12.6,10.1,20.8,12c-7.8-4.7-13.6-9.9-19.4-16.9
					c0.6-1.6,1.3-3.2,2.1-4.6c1.4,1.5,2.9,2.8,4.4,3.9c1.3,1,2.7,1.8,4.2,2.4c-2.7-2.6-5.1-5.7-7.1-9c1.1-1.7,2.3-3.3,3.7-4.8
					c2.7,0.3,5.3,0.4,7.8,0.4c1.8,2.4,3.4,5,4.8,7.7c-0.5-2.6-1.3-5.2-2.4-7.7c2,0,4,0,6,0c2.8,3.6,5.2,7.5,7,11.6
					c-0.7-3.9-2-7.8-3.6-11.4c1.8,0.1,3.5,0.4,5.4,0.7c4.8,8.7,8.1,17.6,9.3,27.6c0.5-3.8,0.4-7.8,0.2-11.7
					c-0.1-1.9-0.3-3.8-0.7-5.7c-0.6-3.1-1.8-6-3.2-8.9c2.5,0.6,5,1.3,7.3,2.1c0.2,0.4,0.4,0.8,0.5,1.2c0.4,1.1,0.7,2.2,1,3.3
					c0.6,2.3,1.3,4.6,1.7,6.9c0.8,3.8,1.2,7.6,1.8,11.5c0.2,1.2,0.4,2.5,0.5,3.7c0.9-3.9,1.2-7.9,1-12c-0.2-4.4-0.9-8.8-2.1-13
					c2.3,0.9,4.6,2,6.7,3.2c2.1,6.4,4.5,12.9,4.8,19.6c0.1,1.5,0,3-0.2,4.5c1-1.7,1.8-3.4,2.1-5.4c0.5-2.6,0.2-5.3,0-7.9
					c-0.2-2.3-0.4-4.7-0.8-6.9c3.8,2.9,7.4,6.6,10.3,10.3c0.2,2,0.1,3.9-0.3,5.9c-0.3,1.4-0.7,2.8-1,4.2c-0.9,4-0.7,8.3-0.7,12.5
					c1.6-2.6,3.2-5.1,4.4-7.9c1.1-2.7,1.8-5.6,2.2-8.5c3.7,5.2,7,11,8,17.3c0.5,3.1,0.1,6.4-0.9,9.3c-0.9,2.6-4,6.5-6.9,7.6
					c0.8,4.9-2.1,11.1-6.3,13.7c-6.5,4-15.1,4.5-22.4,3c-0.3-0.1-0.5-0.1-0.8-0.2c1-0.6,2-1.3,2.9-2c3.8-2.5,8.6-6.9,10.2-11.5
					c-6.9,6.5-15,8.8-24.2,9.9c-6.5-2.8-12.6-6.7-17.9-11.4c1.5,0.4,3,0.7,4.5,0.9c8.2,1.3,16.9-1.7,23.4-6.7
					c-12.2,2.5-24.4,0.5-36.2-3c-3.3-4.1-6.4-9-8.5-13.9c1.6,1.1,3.3,2.3,4.9,3.6c3.1,2.4,6.2,5.2,9.5,6.7c4.5,2,8.6,1.1,12.2,0
					c1.8-0.6,3.6-1.2,5.3-1.9c-2.7-0.1-5.4-0.2-8.1-0.6c-2.4-0.3-5-0.7-7.5-1.5c-6.9-2.2-13-6.7-18.3-11.6c-1-3-1.6-6-1.9-9
					c7.3,4.9,14.1,8.2,22.7,10.3C130.6,388.9,122.6,383.8,116,377.5z"/>
				<path class="st4" d="M178.4,413.2c-1.1,0.8-2.2,1.7-3.4,2.5c-2.3,1.5-4.8,3.1-7.4,4.3c-2.6,1.3-5.3,2.4-8.2,3.4
					c-2.9,0.9-9.2,2-9.2,2c0,0,6.2-1.2,9-2.2c2.8-1,5.5-2.2,8-3.6c2.5-1.3,4.9-2.9,7.1-4.5c1.1-0.8,2.2-1.7,3.3-2.5
					c0.9-0.8,1.4-1.2,2.3-2c-3.9-2.3-5.8-3.6-9.4-6.2c-1.5,1-3.1,1.9-4.8,2.7c-1.9,0.9-3.9,1.6-6,2.2c-4.2,1.1-8.7,1.8-13.5,1.8
					c4.7-0.2,9.1-1,13.2-2.3c2-0.6,4-1.4,5.8-2.3c1.6-0.8,3-1.7,4.4-2.7c-3.5-2.5-5.2-3.8-8.5-6.6c-2.3,0.9-4.8,1.7-7.5,2
					c-2.8,0.3-5.8,0.4-8.9,0c-3.1-0.4-6.2-1-9.4-2c-3.2-1-9.5-4-9.5-4c0,0,6.3,2.8,9.5,3.8c3.1,0.9,6.3,1.5,9.3,1.8
					c3,0.3,6,0.2,8.7-0.2c2.5-0.3,4.8-1.1,7-2c-3.4-2.9-5.1-4.5-8.3-7.6c-2.3,0.2-4.6,0.2-7-0.1c-2.5-0.3-5.1-0.9-7.6-1.7
					c-2.6-0.8-5.1-1.9-7.7-3.2c-2.5-1.3-7.4-4.7-7.4-4.7c0,0,4.9,3.3,7.5,4.5c2.5,1.3,5.1,2.3,7.6,3c2.5,0.8,5.1,1.3,7.5,1.5
					c2.2,0.2,4.3,0.2,6.4,0c-3.3-3.3-4.9-5.1-8-8.7c-3.2-0.9-6.4-2.3-9.5-4c-3.2-1.8-9.1-6.6-9.1-6.6c0,0,6,4.7,9.1,6.4
					c2.9,1.6,5.9,2.8,8.9,3.6c-4.4-5.3-8.5-10.9-12.2-16.7c5.3,7.6,10.9,14.6,17.2,21.4c-0.1-1.8-0.2-3.6-0.5-5.5
					c-0.1-1-0.4-2.1-0.6-3.1c-0.3-1-0.5-2.1-0.8-3.1c-0.6-2.1-1.2-4.2-2-6.2c-0.8-2.1-2.5-6.1-2.5-6.1s1.9,4,2.7,6.1
					c0.8,2.1,1.5,4.2,2.1,6.2c0.3,1,0.6,2.1,0.8,3.2c0.2,1.1,0.5,2.1,0.6,3.2c0.4,2,0.6,4,0.7,6c3,3.1,4.6,4.6,7.8,7.5
					c0.1-2.5,0.1-5-0.1-7.6c-0.2-2.8-0.7-5.7-1.2-8.6c-0.6-2.9-1.3-5.7-2.2-8.5c-0.9-2.8-3.2-8.3-3.2-8.3c0,0,2.4,5.5,3.4,8.3
					c1,2.8,1.8,5.7,2.4,8.5c0.6,2.9,1.2,5.8,1.4,8.7c0.3,2.8,0.3,5.4,0.3,8.1c3,2.6,4.5,3.8,7.6,6.2c0.1-0.5,0.1-0.8,0.2-1.3
					c0.1-0.4,0.1-0.7,0.2-1.1c0-0.5,0-0.7,0.1-1.1c0.1-0.9,0.1-1.4,0.2-2.3c0-0.9,0-1.4,0-2.3c0-3.1-0.2-6.2-0.5-9.3
					c-0.3-3.1-0.7-6.2-1.2-9.3c-0.5-3.1-1.8-9.2-1.8-9.2c0,0,1.4,6.1,2,9.2c0.6,3.1,1.1,6.2,1.5,9.4c0.4,3.1,0.7,6.3,0.8,9.4
					c0,0.9,0,1.4,0.1,2.4c0,0.9-0.1,1.4-0.1,2.3c0,0.5,0,0.7,0,1.2c0,0.5-0.1,0.7-0.1,1.1c-0.1,0.7-0.1,1.1-0.2,1.8
					c1.9,1.4,2.9,2.1,4.9,3.5c0.8-2.2,1.5-4.5,2-6.8c0.5-2.6,0.9-5.3,1.1-8c0.2-2.7,0.3-5.4,0.4-8.2c0-2.7-0.2-8.2-0.2-8.2
					c0,0,0.4,5.4,0.4,8.2c0.1,2.7,0,5.5-0.1,8.2c-0.1,2.7-0.4,5.5-0.8,8.2c-0.4,2.5-1,4.9-1.8,7.2c2.3,1.5,3.4,2.3,5.8,3.7
					c0.5-0.9,1-1.7,1.4-2.6c0.5-1.1,1.1-2.2,1.6-3.4c1-2.3,1.9-4.7,2.7-7.1c0.8-2.4,1.5-4.9,2-7.3c0.6-2.5,1.4-7.5,1.4-7.5
					c0,0-0.6,5.1-1.1,7.6c-0.5,2.5-1.1,5-1.8,7.5c-0.7,2.4-1.5,4.9-2.4,7.3c-0.4,1.2-1,2.4-1.5,3.5c-0.4,0.9-0.8,1.8-1.3,2.7
					c4.8,2.9,7.3,4.2,12.3,6.6c1.4-1.4,2.6-2.9,3.4-4.7c0.9-2,1.6-4.2,2-6.4c0.4-2.2,0.6-4.5,0.7-6.8c0.1-2.3-0.1-6.9-0.1-6.9
					c0,0,0.3,4.6,0.3,6.9c0,2.3-0.1,4.6-0.5,6.9c-0.3,2.2-0.9,4.5-1.8,6.6c-0.7,1.7-1.8,3.3-3.1,4.8c7.4,3.5,15.2,6.3,23.1,8.5
					c-0.3,1-0.4,1.5-0.7,2.5c-8-2.5-15.9-5.5-23.5-9.3c-0.5,1.4-1.1,2.8-1.8,4.1c-0.9,1.6-1.9,3.2-3.1,4.6c-1.2,1.4-2.6,2.7-4.2,3.9
					c-1.6,1.2-3.3,2.2-5.2,3c1.9-0.9,3.5-2,4.9-3.2c1.5-1.2,2.8-2.6,3.9-4c1.1-1.5,2.1-3,2.9-4.6c0.6-1.3,1.1-2.8,1.6-4.2
					c-3.5-1.8-5.2-2.7-8.5-4.7C179.9,411.9,179.4,412.3,178.4,413.2z"/>
			</g>
		</g>
		<g>
			<linearGradient id="SVGID_5_" gradientUnits="userSpaceOnUse" x1="160.9506" y1="294.742" x2="160.9506" y2="388.6871">
				<stop  offset="0" style="stop-color:#C4DDF0"/>
				<stop  offset="0.999" style="stop-color:#99B5FA"/>
			</linearGradient>
			<path class="st7" d="M130.3,350.8c2.2-10.8,16.8,1.8,20.4,5c-5.4-7.3-13.1-12.8-19.2-19c-4.3-4.4-2.3-11.8,1.4-16.2
				c4.5-5.3,11.2-0.2,14.5,3.6c-2.3-6-11.5-11.8-10.4-18.3c1-6,7.9-11.6,14.4-11.2c6.5,0.4,14.7,4.8,15.8,11.4
				c0.8,5.2-7.3,9.2-7.5,15.4c3.6-5.9,11.1-9.5,17.1-4.3c7.4,6.5-4.2,18.9-2.6,27.4c1.1-6,5.9-19.5,14.2-16.2
				c10.3,4,0.3,21.3-3,26.9c-5.5,9.2,4.2,33.3,4.2,33.3c0,0-20-10.2-30-13.7C149.7,371.4,127.2,365.5,130.3,350.8z"/>
			<path class="st4" d="M155,362.9c3.3,1.4,6.7,2.8,10,4.2c2.7,1.1,5.4,2.3,8.1,3.4c-4.9-7-8.9-14.7-12.2-22.6
				c-3.9-3.6-7.8-7.1-12-10.4c-2.1-1.7-4.2-3.3-6.3-5c-2.1-1.6-6.3-4.9-6.3-4.9s4.2,3.1,6.3,4.7c2.1,1.6,4.2,3.2,6.4,4.8
				c3.9,2.9,7.6,6,11.2,9.2c-3.3-8.1-5.4-16.5-7.1-25c-0.6-1.3-1.4-2.5-2.2-3.7c-0.8-1.2-1.6-2.4-2.5-3.5c-1.7-2.3-3.4-4.5-5.2-6.7
				c1.8,2.1,3.6,4.3,5.3,6.5c0.9,1.1,1.7,2.2,2.6,3.4c0.6,0.9,1.2,1.8,1.7,2.7c-0.9-6.5-1.4-12.8-1.6-19.4c0.3,6.5,1,12.9,2,19.4
				c0.2-1.2,0.5-2.5,0.9-3.6c0.5-1.5,1-3,1.7-4.3c1.3-2.7,4.7-7.3,4.7-7.3c0,0-3.3,4.7-4.5,7.4c-0.6,1.4-1.1,2.9-1.6,4.4
				c-0.4,1.5-0.7,3.1-0.9,4.7c1.8,8.5,4.2,16.9,7.6,24.9c0.2-2.3,0.6-4.6,1.1-6.7c0.7-2.6,1.6-5.1,2.7-7.4c1.1-2.3,2.3-4.5,3.7-6.5
				c1.4-2,4.4-5.6,4.4-5.6c0,0-3,3.7-4.3,5.7c-1.3,2.1-2.5,4.3-3.5,6.6c-1,2.3-1.9,4.8-2.5,7.5c-0.6,2.4-0.9,5.1-1,7.7
				c3.4,7.8,7.6,15.3,12.6,22.1c-0.1-3.2,0.1-6.3,0.6-9.2c0.6-3.5,1.5-7,2.6-10.2c1.1-3.2,2.5-6.3,4.1-9.1c1.6-2.9,5.2-8.1,5.2-8.1
				s-3.6,5.3-5.1,8.2c-1.5,2.9-2.8,6-3.8,9.3c-1.1,3.2-1.9,6.7-2.3,10.2c-0.4,3.3-0.6,6.8-0.3,10.3c9.7,12.6,20.8,22.9,34.2,31.6
				c-0.6,0.9-0.8,1.3-1.4,2.2c-13.4-9.1-24.5-19.8-34.1-32.9c-3-1.4-6.1-2.8-9.1-4.1c-3.3-1.5-6.6-2.9-10-4.4
				c-6.6-3-19.6-9.4-19.6-9.4C135.3,354.2,148.4,360.1,155,362.9z"/>
		</g>
		<path class="st1" d="M402.4,79.4c0-13.1-15.1-23.8-33.6-23.8c-18.6,0-33.6,10.6-33.6,23.8c0,13.1,15.1,23.8,33.6,23.8
			c5,0,9.7-0.8,13.9-2.1l11,7.5l-5-10C397,94.2,402.4,87.2,402.4,79.4z M353.9,83c-2.4,0-4.3-1.9-4.3-4.3c0-2.4,1.9-4.3,4.3-4.3
			c2.4,0,4.3,1.9,4.3,4.3C358.2,81.1,356.3,83,353.9,83z M368.8,83c-2.4,0-4.3-1.9-4.3-4.3c0-2.4,1.9-4.3,4.3-4.3
			c2.4,0,4.3,1.9,4.3,4.3C373.1,81.1,371.2,83,368.8,83z M383.7,83c-2.4,0-4.3-1.9-4.3-4.3c0-2.4,1.9-4.3,4.3-4.3
			c2.4,0,4.3,1.9,4.3,4.3C388,81.1,386.1,83,383.7,83z"/>
		<path class="st1" d="M548.3,105.7c-2.7,0-4.8,2.2-4.8,4.8c0,2.7,2.2,4.8,4.8,4.8c2.7,0,4.8-2.2,4.8-4.8
			C553.1,107.9,550.9,105.7,548.3,105.7z M536.9,98.7l4.3,4.5c1.8-1.8,4.3-2.8,7.1-2.8c2.8,0,5.2,1.1,7.1,2.8l4.3-4.5
			c-2.9-2.8-6.9-4.6-11.3-4.6C543.9,94.2,539.9,95.9,536.9,98.7z M548.3,68.2c-11.4,0-21.7,4.5-29.3,11.8l4.3,4.5
			c6.5-6.2,15.3-10,25-10c9.7,0,18.5,3.8,25,10l4.3-4.5C569.9,72.7,559.6,68.2,548.3,68.2z M528.1,89.5l4.3,4.5
			c4.1-4,9.7-6.4,15.9-6.4c6.2,0,11.8,2.4,15.9,6.4l4.3-4.5c-5.2-5-12.3-8.1-20.2-8.1C540.4,81.3,533.3,84.5,528.1,89.5z"/>
		<g>
			<path class="st1" d="M294.3,78.7c-3.6,1.4-6.6,4-8.4,7.3h5.9C292.5,82.7,293.5,80.3,294.3,78.7z M307.8,94.4h-7.1v6h6.6
				C307.6,98.6,307.7,96.6,307.8,94.4z M291.1,94.4h-7.2c0.1,2.1,0.6,4.1,1.4,6h6.3C291.4,98.6,291.2,96.6,291.1,94.4z M291.6,87.2
				h-6.3c-0.8,1.8-1.3,3.8-1.4,6h7.2C291.2,90.9,291.4,89,291.6,87.2z M309,93.2h7c-0.1-2.1-0.6-4.1-1.4-6h-6.1
				C308.8,89,308.9,90.9,309,93.2z M314,86c-1.8-3.3-4.7-5.9-8.2-7.2c0.8,1.5,1.8,3.9,2.5,7.2H314z M304.3,78.3
				c-1.2-0.3-2.4-0.5-3.7-0.6V86h6.4C306.4,82.3,305.2,79.8,304.3,78.3z M307.3,87.2h-6.6v6h7.1C307.8,90.9,307.6,89,307.3,87.2z
				 M293,86h6.4v-8.3c-1.3,0-2.5,0.2-3.7,0.6C294.9,79.8,293.7,82.3,293,86z M305.8,108.7c3.5-1.4,6.4-4,8.3-7.2h-5.7
				C307.6,104.9,306.6,107.2,305.8,108.7z M300.7,101.5v8.3c1.3-0.1,2.5-0.2,3.6-0.6c0.9-1.5,2.1-4,2.8-7.7H300.7z M308.5,100.3h6.1
				c0.8-1.8,1.3-3.8,1.4-6h-7C308.9,96.6,308.7,98.6,308.5,100.3z M292.8,100.3h6.6v-6h-7.1C292.4,96.6,292.6,98.6,292.8,100.3z
				 M295.8,109.3c1.2,0.3,2.4,0.5,3.6,0.5v-8.3H293C293.8,105.3,294.9,107.8,295.8,109.3z M285.9,101.5c1.8,3.3,4.8,5.9,8.4,7.3
				c-0.9-1.5-1.9-3.9-2.5-7.3H285.9z M292.3,93.2h7.1v-6h-6.6C292.5,89,292.4,90.9,292.3,93.2z"/>
		</g>
		<g>
			<g>
				<line class="st8" x1="277" y1="94.4" x2="275" y2="94.4"/>
				<line class="st9" x1="270" y1="94.4" x2="146" y2="94.4"/>
				<polyline class="st8" points="143.5,94.4 141.5,94.4 141.5,96.4 				"/>
				<line class="st10" x1="141.5" y1="101.5" x2="141.5" y2="173.7"/>
				<polyline class="st8" points="141.5,176.3 141.5,178.3 143.5,178.3 				"/>
				<line class="st11" x1="147.1" y1="178.3" x2="151.7" y2="178.3"/>
				<line class="st8" x1="153.5" y1="178.3" x2="155.5" y2="178.3"/>
			</g>
		</g>
		<g>
			<g>
				<line class="st8" x1="579.6" y1="100.2" x2="581.6" y2="100.2"/>
				<line class="st12" x1="586.4" y1="100.2" x2="610.2" y2="100.2"/>
				<polyline class="st8" points="612.6,100.2 614.6,100.2 614.6,102.2 				"/>
				<line class="st13" x1="614.6" y1="107.2" x2="614.6" y2="176.6"/>
				<polyline class="st8" points="614.6,179.1 614.6,181.1 616.6,181.1 				"/>
				<line class="st14" x1="621.3" y1="181.1" x2="635.9" y2="181.1"/>
				<polyline class="st8" points="638.2,181.1 640.2,181.1 640.2,183.1 				"/>
				<line class="st15" x1="640.2" y1="187.6" x2="640.2" y2="217.7"/>
				<line class="st8" x1="640.2" y1="219.9" x2="640.2" y2="221.9"/>
			</g>
		</g>
		<g>
			<polygon class="st1" points="135.7,178.3 123,171 123,185.7 			"/>
			<polygon class="st1" points="121.7,178.3 109,171 109,185.7 			"/>
		</g>
		<path id="XMLID_1_" class="st1" d="M123.8,317.7l-3.4-3.4c0,0-0.9-0.8-1.8-0.3l-1.9,2l-0.5,0.6c-0.9,1.1-3.5-1.2-3.5-1.2
			c-1.9-1-6.3-6.1-6.3-6.1c-2.1-2.5-0.9-3.5-0.9-3.5l0.6-0.6l2.1-2c0,0,1.1-0.7-1.9-3.3l-3.5-3.5c0,0-0.9-0.9-1.8-0.3l-1.9,2.1
			l-0.6,0.6c-1.5,2.2-0.8,5.9-0.8,5.9c2.5,9.5,13.5,16.7,13.5,16.7c9.2,5.6,11.9,1.9,11.9,1.9l0.6-0.5l2-1.9
			C125.7,320.9,126.8,320.2,123.8,317.7z"/>
		<g>
			<path class="st1" d="M629.6,167.9c0-0.5-0.2-1-0.6-1.4c-0.4-0.4-0.9-0.6-1.4-0.6c-0.5,0-1,0.2-1.4,0.6c-0.4,0.4-0.6,0.9-0.6,1.4
				c0,0.5,0.2,1,0.6,1.4c0.4,0.4,0.9,0.6,1.4,0.6c0.5,0,1-0.2,1.4-0.6C629.4,169,629.6,168.4,629.6,167.9"/>
			<path class="st1" d="M629.6,140.1L629.6,140.1c0-1.1-0.9-2-2-2c-1.1,0-2,0.9-2,2v0c0,1.1,0.9,2,2,2
				C628.7,142.1,629.6,141.2,629.6,140.1z M629.6,154L629.6,154c0-1.1-0.9-2-2-2c-1.1,0-2,0.9-2,2v0c0,1.1,0.9,2,2,2
				C628.7,156,629.6,155.1,629.6,154z"/>
			<path class="st1" d="M629.6,126.2c0-0.5-0.2-1-0.6-1.4c-0.4-0.4-0.9-0.6-1.4-0.6c-0.5,0-1,0.2-1.4,0.6c-0.4,0.4-0.6,0.9-0.6,1.4
				c0,0.5,0.2,1,0.6,1.4c0.4,0.4,0.9,0.6,1.4,0.6c0.5,0,1-0.2,1.4-0.6C629.4,127.2,629.6,126.7,629.6,126.2"/>
		</g>
		<polygon class="st1" points="130.4,204.5 130.4,199.2 127.5,199.2 127.5,204.5 122.3,204.5 122.3,207.4 127.5,207.4 127.5,212.6 
			130.4,212.6 130.4,207.4 135.7,207.4 135.7,204.5 		"/>
	</g>
</g>
<g id="OBJECTS">
	<g>
		<g>
			<g>
				<g>
					<path class="st16" d="M441.9,119.9c-3.3-7.7-7.3-13.2-11-11.5c-3.8,1.7-2.3,8.3,1.3,15.9c3.6,7.6,13.3,24.8,16.3,23.4
						C451.6,146.2,445.2,127.6,441.9,119.9z"/>
					<path class="st16" d="M465.1,111.7c2.7,1.4-6.5,21-9.3,26.4c-2.8,5.4-6.2,10.9-9.1,9.4c-3-1.5-0.4-7.5,2.3-12.9
						C451.8,129.1,462.5,110.3,465.1,111.7z"/>
					<g>
						<path class="st16" d="M463.5,109.3c-0.9,1.6-1.2,3.5-0.3,5.2c1.7,3.1,7.7-0.9,9.4-2.2c1.5-1.2,2.8-5.8,2-6.9
							c-0.5-0.7-2.4,0.5-2.8,0.8c-1.6,0.9-2.9,2.1-4.6,2.5c-0.1-0.5,0.2-1.1,0.6-1.5c0.4-0.4,0.8-0.8,0.9-1.4
							c-0.2-0.2-0.5-0.2-0.8-0.2C466.2,105.7,464.4,107.9,463.5,109.3z"/>
					</g>
				</g>
				<linearGradient id="SVGID_6_" gradientUnits="userSpaceOnUse" x1="422.3685" y1="74.875" x2="422.3685" y2="102.2511">
					<stop  offset="0" style="stop-color:#DD697B"/>
					<stop  offset="1" style="stop-color:#BC2773"/>
				</linearGradient>
				<path class="st17" d="M412,82.8c-0.1,1,0.2,2.1,0.3,3.1c0.1,0.9,0,1.8-0.6,2.6c-0.5,0.7-0.9,1-0.9,2c-0.1,1.2,0.9,2.5,0.4,3.6
					c-0.4,0.9-1.5,1.4-1.7,2.3c-0.2,1,0.8,2,0.6,3.1c-0.2,1.5-2.4,2.2-2.3,3.6c0.1,0.8,0.8,1.4,1,2.1c0.2,1.1-0.8,2-1.1,3.1
					c-0.3,1.1,0.2,2.3,0.8,3.3c0.2,0.3,0.4,0.6,0.6,0.8c0.3,0.2,0.6,0.2,0.9,0.3c1.3,0.2,2.7,0.5,3.9,0.2c0.9-0.2,1.7-0.2,2.7-0.2
					c2.1,0,4.2,0,6.3,0c2,0,4,0,6,0c1.7,0,3.8,0.7,5.5,0.1c1.2-0.4,2.1-1.8,1.5-2.9c-0.3-0.7-1.1-1.2-1-1.9c0-0.6,0.6-1.1,0.7-1.7
					c0.2-1.5-1.9-2.1-1.5-3.6c0.2-0.6,0.6-1.1,1-1.6c0.4-0.5,0.8-1.1,0.7-1.8c-0.1-0.7-0.7-1.3-0.8-2c-0.1-1.5,2.1-2.5,1.9-4
					c-0.2-0.9-1.2-1.5-1.1-2.4c0.1-0.6,0.6-1,0.6-1.5c0-0.5-0.3-0.9-0.5-1.3c-0.4-0.8-0.3-1.7-0.4-2.5c-0.2-1.5-1-2.8-2.1-3.8
					c-1-1.1-2.3-1.9-3.5-2.7c-1.1-0.7-2.3-1.2-3.4-1.8c-0.9-0.5-1.7-1.2-2.8-1.3c-0.8-0.1-1.6,0.1-2.4,0.3c-1.2,0.3-2.5,0.6-3.7,0.9
					c-1,0.2-2,0.5-2.8,1c-0.8,0.5-1.4,1.2-1.9,2c-0.4,0.6-0.8,1.3-1,2.1C412,82.4,412,82.6,412,82.8z"/>
				<path class="st16" d="M441.2,125.9c0-4.7-8-17.7-8-17.7l-11.6-3.6l-7.9,1.9c-4.9,0.9-5.1,5.6-5.1,10.6c0,5.7,0.9,10.8,2,15.3
					h28.1C439.9,130.4,441.2,127.7,441.2,125.9z"/>
				<g>
					<path class="st16" d="M417.8,95v11.8c0,0,2.1,1.3,7.1,1.3c2.7,0,3.3-1.3,3.3-1.3v-3.7L417.8,95z"/>
					<path class="st16" d="M417.6,88.7c0,0.4,0,0.7,0.1,1c0,0.1,0,0.2,0,0.4c-0.2,6,0.4,10.6,7.2,13c1.2,0.2,5.6,1.1,7.2-0.7
						c1.9-2.1,3.4-7.6,3.4-9.5v-0.1c0-1.9-0.3-2.4-0.3-3.4c0-0.8,0.4-3.4,0.5-4.6c0-1.9-0.7-4.1-1.5-5.8c-1.6-3-4.2-4.9-8.4-4.9
						C416.2,74.2,417.4,82.3,417.6,88.7z"/>
					<path class="st18" d="M421,83.8C421,83.8,421,83.8,421,83.8"/>
					<g>
						<path class="st16" d="M417.8,89.1c-0.8-0.2-2.5-0.8-2.2,1.9c0.6,4.6,3.3,4.3,3.3,4.3c-0.2-0.7-0.4-1.6-0.6-2.6
							c0.7-0.4,0.1-1,0-1.5c0-0.1-0.1-0.3-0.1-0.4C418.1,90.1,417.8,89.7,417.8,89.1z"/>
						<path class="st19" d="M417.9,90.8c0,0-0.8-0.8-1.5-0.5c-0.6,0.3-0.2,1.8,0.3,2.7c0.5,0.9,1.1,0.9,1.2,0.7
							c0.1-0.2-1-0.8-0.6-1.2c0.4-0.4,0.8-0.5,0.8-0.7C418,91.5,417.9,90.8,417.9,90.8z"/>
						<path class="st20" d="M420,86.4c-0.2,1.7-1.6,5.4-1.6,5.4l-0.9-3.3L420,86.4z"/>
					</g>
					<path class="st19" d="M427,103.4c-1.9-0.3-5.3-1.4-6.9-3.2c0,0,0.4,1.7,2.1,2.7C423.9,103.8,427,103.4,427,103.4z"/>
					<linearGradient id="SVGID_7_" gradientUnits="userSpaceOnUse" x1="425.011" y1="74.875" x2="425.011" y2="102.2511">
						<stop  offset="0" style="stop-color:#DD697B"/>
						<stop  offset="1" style="stop-color:#BC2773"/>
					</linearGradient>
					<path class="st21" d="M420.9,88.4c-0.1,0.5,0,1-0.1,1.5c-0.1,0.9-0.5,1.9-1.2,2.6c-0.6,0.6-1.2,1.3-1.4,2.1
						c-0.1,0.8,0.2,1.6,0.4,2.4c0.4,1.5-0.8,2.6-0.7,4c0,1.2,1.3,2.4,0.8,3.6c-0.3,0.7-1.1,1-1.8,1.1c-1.4,0-2.7-0.9-3.5-2.2
						c-0.7-1.2-1-2.7-1-4.1c-0.1-2.8,0.3-5.6,0.4-8.4c0.1-2.8-0.5-5.5-0.3-8.2c0.6-7.4,5.4-6.4,5.4-6.4c2-2.8,5.3-2.9,8.4-3.2
						c0.6-0.1,1.3-0.2,1.9,0.1c0.4,0.2,0.8,0.5,1.2,0.8c1.2,0.8,2.6,1.3,3.8,2.1c1.8,1.3,3,3.4,3.2,5.7c0,0.8-0.1,1.7,0.2,2.5
						c0.1,0.4,0.3,0.8,0.5,1.2c0.3,0.9,0.5,1.8,0.2,2.7c-0.5,1.4-2,2.5-1.9,4c0.1-0.8-0.1-1.8-0.2-2.5c-0.1-0.8-0.3-1.5-1-2
						c-0.3-0.3-0.8-0.4-1.1-0.6c-0.9-0.6-1.1-2-2.1-2.5c-0.6-0.3-1.3-0.3-2-0.3c-0.7-0.1-1.4-0.2-2-0.5c-0.4-0.2-1.1-0.9-1.4-0.9
						c-0.8,0-1.6,1.5-1.7,2.2c-0.2,0.7-0.3,1.5-0.9,1.9c-0.5,0.4-1.3,0.4-1.8,1C421.1,87.9,421,88.1,420.9,88.4z"/>
				</g>
			</g>
			<path class="st22" d="M417.8,105.5c2.5,2.8,7.8,3.4,9.1,3c1.4-0.4,1.2-1.8,1.2-1.8s6.7,1.7,8.5,3.1c1.8,1.4,6.2,10.2,7.7,14.5
				c1.5,4.3,3.5,9.4,3.5,9.4s9.2-14.4,12.5-18.9c0,0,3.3,1.4,5,2.7c0,0-5.5,13.5-8.5,19.8c-3,6.3-5.5,10.4-8.7,10.9
				c-3.2,0.5-10.2-11.7-10.2-11.7v8.7h-27.2l-2.1-17.9c0,0-8.9,10.7-11.1,12.8c-2.1,2.1-0.9,2.3-2,9.1c-1.1,6.8-5.6,22.5-5.6,22.5
				s-3.3,0.6-6.4-0.2c0,0,1.3-17.9,3.1-26.1c1.8-8.2,6.8-15.8,10.6-22.1c3.8-6.3,9.2-12.8,12.2-15
				C412.4,105.8,417.8,105.5,417.8,105.5z"/>
			<path class="st23" d="M408.7,127.3c3.3-2.9,4.3-3.9,4.3-3.9l-0.5,16.9l-2.4-0.8L408.7,127.3z"/>
			<path class="st23" d="M448.2,148.3c0.5-0.1,0.9-0.2,1.4-0.5c-0.8-2-2-4.8-3.2-7.1c-2.1-3.9-2.8-11.4-4.1-15.6
				c-1.3-4.2-3.3-6.6-3.3-6.6s1.7,4.7,2.2,7.3c0.5,2.7-3.2,5.7-3.3,10.7C438,136.5,445,148.7,448.2,148.3z"/>
		</g>
		<rect x="181.5" y="147.1" class="st1" width="404.6" height="294.6"/>
		<g>
			
				<rect x="242.1" y="106.3" transform="matrix(-1.836970e-16 1 -1 -1.836970e-16 683.6351 -66.3649)" class="st24" width="265.9" height="404.6"/>
			<linearGradient id="SVGID_8_" gradientUnits="userSpaceOnUse" x1="316.3253" y1="55.3453" x2="433.6747" y2="258.6006">
				<stop  offset="0" style="stop-color:#DD697B"/>
				<stop  offset="1" style="stop-color:#BC2773"/>
			</linearGradient>
			<rect x="172.7" y="138.3" class="st25" width="404.6" height="37.4"/>
			<rect x="172.7" y="166.8" class="st26" width="404.6" height="8.8"/>
			<g>
				<g>
					<g>
						<circle class="st27" cx="208.4" cy="151.3" r="6.1"/>
						<path class="st28" d="M208.4,154.9L208.4,154.9c-2,0-3.6-1.6-3.6-3.6v-21c0-2,1.6-3.6,3.6-3.6l0,0c2,0,3.6,1.6,3.6,3.6v21
							C212,153.2,210.4,154.9,208.4,154.9z"/>
					</g>
				</g>
				<g>
					<g>
						<circle class="st27" cx="256" cy="151.3" r="6.1"/>
						<path class="st28" d="M256,154.9L256,154.9c-2,0-3.6-1.6-3.6-3.6v-21c0-2,1.6-3.6,3.6-3.6l0,0c2,0,3.6,1.6,3.6,3.6v21
							C259.6,153.2,258,154.9,256,154.9z"/>
					</g>
				</g>
				<g>
					<g>
						<path class="st27" d="M309.7,151.3c0,3.4-2.8,6.1-6.1,6.1c-3.4,0-6.1-2.8-6.1-6.1c0-3.4,2.8-6.1,6.1-6.1
							C307,145.2,309.7,148,309.7,151.3z"/>
						<path class="st28" d="M303.6,154.9L303.6,154.9c-2,0-3.6-1.6-3.6-3.6v-21c0-2,1.6-3.6,3.6-3.6l0,0c2,0,3.6,1.6,3.6,3.6v21
							C307.2,153.2,305.6,154.9,303.6,154.9z"/>
					</g>
				</g>
				<g>
					<g>
						<circle class="st27" cx="351.2" cy="151.3" r="6.1"/>
						<path class="st28" d="M351.2,154.9L351.2,154.9c-2,0-3.6-1.6-3.6-3.6v-21c0-2,1.6-3.6,3.6-3.6l0,0c2,0,3.6,1.6,3.6,3.6v21
							C354.8,153.2,353.2,154.9,351.2,154.9z"/>
					</g>
				</g>
				<g>
					<g>
						<circle class="st27" cx="398.8" cy="151.3" r="6.1"/>
						<path class="st28" d="M398.8,154.9L398.8,154.9c-2,0-3.6-1.6-3.6-3.6v-21c0-2,1.6-3.6,3.6-3.6l0,0c2,0,3.6,1.6,3.6,3.6v21
							C402.4,153.2,400.8,154.9,398.8,154.9z"/>
					</g>
				</g>
				<g>
					<g>
						<circle class="st27" cx="446.4" cy="151.3" r="6.1"/>
						<path class="st28" d="M446.4,154.9L446.4,154.9c-2,0-3.6-1.6-3.6-3.6v-21c0-2,1.6-3.6,3.6-3.6l0,0c2,0,3.6,1.6,3.6,3.6v21
							C450,153.2,448.4,154.9,446.4,154.9z"/>
					</g>
				</g>
				<g>
					<g>
						<circle class="st27" cx="494" cy="151.3" r="6.1"/>
						<path class="st28" d="M494,154.9L494,154.9c-2,0-3.6-1.6-3.6-3.6v-21c0-2,1.6-3.6,3.6-3.6l0,0c2,0,3.6,1.6,3.6,3.6v21
							C497.6,153.2,496,154.9,494,154.9z"/>
					</g>
				</g>
				<g>
					<g>
						<circle class="st27" cx="541.6" cy="151.3" r="6.1"/>
						<path class="st28" d="M541.6,154.9L541.6,154.9c-2,0-3.6-1.6-3.6-3.6v-21c0-2,1.6-3.6,3.6-3.6l0,0c2,0,3.6,1.6,3.6,3.6v21
							C545.2,153.2,543.6,154.9,541.6,154.9z"/>
					</g>
				</g>
			</g>
			<path class="st29" d="M202,195.2h43.9c5.4,0,9.7,4.4,9.7,9.7v34c0,5.4-4.4,9.7-9.7,9.7H202c-5.4,0-9.7-4.4-9.7-9.7v-34
				C192.2,199.5,196.6,195.2,202,195.2z"/>
			<path class="st28" d="M277.5,195.2h43.9c5.4,0,9.7,4.4,9.7,9.7v34c0,5.4-4.4,9.7-9.7,9.7h-43.9c-5.4,0-9.7-4.4-9.7-9.7v-34
				C267.8,199.5,272.1,195.2,277.5,195.2z"/>
			<path class="st30" d="M353.1,195.2h43.9c5.4,0,9.7,4.4,9.7,9.7v34c0,5.4-4.4,9.7-9.7,9.7h-43.9c-5.4,0-9.7-4.4-9.7-9.7v-34
				C343.3,199.5,347.7,195.2,353.1,195.2z"/>
			<g>
				<path class="st31" d="M472.5,197.2c4.3,0,7.7,3.5,7.7,7.7v34c0,4.3-3.5,7.7-7.7,7.7h-43.9c-4.3,0-7.7-3.5-7.7-7.7v-34
					c0-4.3,3.5-7.7,7.7-7.7H472.5 M472.5,195.2h-43.9c-5.4,0-9.7,4.4-9.7,9.7v34c0,5.4,4.4,9.7,9.7,9.7h43.9c5.4,0,9.7-4.4,9.7-9.7
					v-34C482.2,199.5,477.9,195.2,472.5,195.2L472.5,195.2z"/>
			</g>
			<linearGradient id="SVGID_9_" gradientUnits="userSpaceOnUse" x1="508.3857" y1="191.2385" x2="543.8275" y2="252.6255">
				<stop  offset="0" style="stop-color:#C4DDF0"/>
				<stop  offset="0.999" style="stop-color:#99B5FA"/>
			</linearGradient>
			<path class="st32" d="M504.2,195.2H548c5.4,0,9.7,4.4,9.7,9.7v34c0,5.4-4.4,9.7-9.7,9.7h-43.9c-5.4,0-9.7-4.4-9.7-9.7v-34
				C494.4,199.5,498.8,195.2,504.2,195.2z"/>
			<linearGradient id="SVGID_10_" gradientUnits="userSpaceOnUse" x1="206.1727" y1="256.9232" x2="241.6145" y2="318.3102">
				<stop  offset="0" style="stop-color:#C4DDF0"/>
				<stop  offset="0.999" style="stop-color:#99B5FA"/>
			</linearGradient>
			<path class="st33" d="M202,260.9h43.9c5.4,0,9.7,4.4,9.7,9.7v34c0,5.4-4.4,9.7-9.7,9.7H202c-5.4,0-9.7-4.4-9.7-9.7v-34
				C192.2,265.2,196.6,260.9,202,260.9z"/>
			<path class="st34" d="M277.5,260.9h43.9c5.4,0,9.7,4.4,9.7,9.7v34c0,5.4-4.4,9.7-9.7,9.7h-43.9c-5.4,0-9.7-4.4-9.7-9.7v-34
				C267.8,265.2,272.1,260.9,277.5,260.9z"/>
			<g>
				<path class="st35" d="M396.9,262.9c4.3,0,7.7,3.5,7.7,7.7v34c0,4.3-3.5,7.7-7.7,7.7h-43.9c-4.3,0-7.7-3.5-7.7-7.7v-34
					c0-4.3,3.5-7.7,7.7-7.7H396.9 M396.9,260.9h-43.9c-5.4,0-9.7,4.4-9.7,9.7v34c0,5.4,4.4,9.7,9.7,9.7h43.9c5.4,0,9.7-4.4,9.7-9.7
					v-34C406.7,265.2,402.3,260.9,396.9,260.9L396.9,260.9z"/>
			</g>
			<path class="st28" d="M428.6,260.9h43.9c5.4,0,9.7,4.4,9.7,9.7v34c0,5.4-4.4,9.7-9.7,9.7h-43.9c-5.4,0-9.7-4.4-9.7-9.7v-34
				C418.9,265.2,423.2,260.9,428.6,260.9z"/>
			<g>
				<path class="st30" d="M548,262.9c4.3,0,7.7,3.5,7.7,7.7v34c0,4.3-3.5,7.7-7.7,7.7h-43.9c-4.3,0-7.7-3.5-7.7-7.7v-34
					c0-4.3,3.5-7.7,7.7-7.7H548 M548,260.9h-43.9c-5.4,0-9.7,4.4-9.7,9.7v34c0,5.4,4.4,9.7,9.7,9.7H548c5.4,0,9.7-4.4,9.7-9.7v-34
					C557.8,265.2,553.4,260.9,548,260.9L548,260.9z"/>
			</g>
			<path class="st28" d="M202,326.6h43.9c5.4,0,9.7,4.4,9.7,9.7v34c0,5.4-4.4,9.7-9.7,9.7H202c-5.4,0-9.7-4.4-9.7-9.7v-34
				C192.2,330.9,196.6,326.6,202,326.6z"/>
			<g>
				<g>
					<path class="st28" d="M321.4,328.6c4.3,0,7.7,3.5,7.7,7.7v34c0,4.3-3.5,7.7-7.7,7.7h-43.9c-4.3,0-7.7-3.5-7.7-7.7v-34
						c0-4.3,3.5-7.7,7.7-7.7H321.4 M321.4,326.6h-43.9c-5.4,0-9.7,4.4-9.7,9.7v34c0,5.4,4.4,9.7,9.7,9.7h43.9c5.4,0,9.7-4.4,9.7-9.7
						v-34C331.1,330.9,326.8,326.6,321.4,326.6L321.4,326.6z"/>
				</g>
			</g>
			<g>
				<path class="st30" d="M396.9,328.6c4.3,0,7.7,3.5,7.7,7.7v34c0,4.3-3.5,7.7-7.7,7.7h-43.9c-4.3,0-7.7-3.5-7.7-7.7v-34
					c0-4.3,3.5-7.7,7.7-7.7H396.9 M396.9,326.6h-43.9c-5.4,0-9.7,4.4-9.7,9.7v34c0,5.4,4.4,9.7,9.7,9.7h43.9c5.4,0,9.7-4.4,9.7-9.7
					v-34C406.7,330.9,402.3,326.6,396.9,326.6L396.9,326.6z"/>
			</g>
			<path class="st34" d="M428.6,326.6h43.9c5.4,0,9.7,4.4,9.7,9.7v34c0,5.4-4.4,9.7-9.7,9.7h-43.9c-5.4,0-9.7-4.4-9.7-9.7v-34
				C418.9,330.9,423.2,326.6,428.6,326.6z"/>
			<path class="st29" d="M504.2,326.6H548c5.4,0,9.7,4.4,9.7,9.7v34c0,5.4-4.4,9.7-9.7,9.7h-43.9c-5.4,0-9.7-4.4-9.7-9.7v-34
				C494.4,330.9,498.8,326.6,504.2,326.6z"/>
			<polyline class="st36" points="208.3,224.2 217.2,233.1 239.5,210.8 			"/>
			<polyline class="st37" points="359.4,289.9 368.3,298.8 390.6,276.5 			"/>
			<polyline class="st36" points="510.5,224.2 519.4,233.1 541.7,210.8 			"/>
			<g>
				<rect x="192.2" y="394.2" class="st28" width="365.5" height="4.3"/>
				<rect x="192.2" y="405.9" class="st28" width="365.5" height="4.3"/>
				<rect x="192.2" y="417.7" class="st28" width="365.5" height="4.3"/>
			</g>
		</g>
		<g>
			<linearGradient id="SVGID_11_" gradientUnits="userSpaceOnUse" x1="178.9153" y1="238.2501" x2="178.9153" y2="271.1785">
				<stop  offset="0" style="stop-color:#4D5DEA"/>
				<stop  offset="0.327" style="stop-color:#4136E9"/>
				<stop  offset="1" style="stop-color:#420085"/>
			</linearGradient>
			<path class="st38" d="M169.3,246.1c-1.1,9.2-2.3,29.9-2.3,29.9l23.8,0.1l-1.7-32.5l-8.7-4.5L169.3,246.1z"/>
			<path class="st16" d="M196.8,313.3c-3.3,0.6-8.4-18.6-10-26.8c-1.6-8.3-1.3-15.1,2.8-15.8c4.1-0.7,6.6,5.6,7.8,14
				C198.6,293,200.1,312.7,196.8,313.3z"/>
			<path class="st16" d="M223.4,323.1c-1.4,2.7-17.8-5-22.3-7.3c-4.5-2.4-9.1-5.3-7.5-8.2c1.6-3,6.5-0.9,11,1.5
				C209.2,311.3,224.8,320.4,223.4,323.1z"/>
			<path class="st16" d="M190.1,385.5c4.7,0.2,8.3-25.8,9-37c0.7-11.2-0.9-20.1-6.6-20.3c-5.7-0.2-8,8.5-8.3,19.7
				C184,359.1,185.4,385.3,190.1,385.5z"/>
			<path class="st16" d="M187.9,441.2c4.2,0.2,6.8-36.9,7.2-45.1c0.3-8.3,0-17.1-4.6-17.2c-4.7-0.2-5.7,8.5-6,16.8
				C184.1,403.9,183.7,441,187.9,441.2z"/>
			<path class="st16" d="M168.2,385.5c4.7,0.4,9.6-25.4,10.8-36.5c1.2-11.1,0.1-20.1-5.6-20.6c-5.7-0.5-8.4,8.1-9.3,19.2
				C163.4,358.8,163.5,385,168.2,385.5z"/>
			<path class="st16" d="M163.8,441c4.2,0.4,8-36.5,8.7-44.7c0.8-8.3,0.9-17-3.7-17.5c-4.7-0.4-6.1,8.2-6.9,16.5
				C161.2,403.6,159.6,440.6,163.8,441z"/>
			<path class="st16" d="M165.8,336.8h33.1c0,0-2.9-14.7-3-20c-0.1-4.4-1.9-18.2-1.9-18.2s4-6,4-9.2c0-4.8-8.1-17.7-8.1-17.7
				l-11.6-3.6l-7.9,1.9c-4.9,0.9-5.1,5.6-5.1,10.7c0,15.2,6.4,25.5,5.8,34.2C170.7,320.4,165.8,336.8,165.8,336.8z"/>
			<path class="st16" d="M160,312.8c3.3,0.8,9.6-18,11.7-26.1c2.1-8.2,2.3-15-1.8-15.9c-4-1-6.9,5.2-8.7,13.4
				C159.5,292.4,156.7,312,160,312.8z"/>
			<g>
				<path class="st16" d="M174.5,258.3v11.9c0,0,2.1,1.3,7.1,1.3c2.7,0,3.3-1.3,3.3-1.3v-3.7L174.5,258.3z"/>
				<g>
					<path class="st19" d="M184.7,250.8c1,0.3,1.4,3.7,1.2,3.7c-0.2,0-0.8-2.7-1.7-3.2C183.3,250.9,184.7,250.8,184.7,250.8z"/>
					<path class="st19" d="M188.9,250.8c-0.7,0.5-0.4,3.3-0.4,3.5c0,0.2,0.5-3.2,0.5-3.2L188.9,250.8z"/>
					<g>
						<path class="st39" d="M182,253.6c0,0.5,0.4,0.9,0.9,0.9c0.5,0,0.9-0.4,0.9-0.9c0-0.5-0.4-0.9-0.9-0.9
							C182.3,252.7,182,253.1,182,253.6z"/>
						<path class="st39" d="M181,252.9c0.5-0.2,1.1-0.5,1.8-0.5c0.7,0,1.3,0.3,1.8,0.5H181z"/>
						<path class="st39" d="M189.1,253.6c0,0.5,0.4,0.9,0.9,0.9c0.5,0,0.9-0.4,0.9-0.9c0-0.5-0.4-0.9-0.9-0.9
							C189.5,252.7,189.1,253.1,189.1,253.6z"/>
						<path class="st39" d="M188.7,252.9c0.3-0.2,0.8-0.5,1.3-0.5c0.5,0,0.9,0.3,1.3,0.5H188.7z"/>
					</g>
					<path class="st40" d="M187.4,258.3c-0.9,0-1.6-0.1-1.6,0.2c0,0.2,0.7,0.5,1.6,0.5c0.9,0,1.6-0.3,1.6-0.5
						C189,258.2,188.3,258.3,187.4,258.3z"/>
					<path class="st19" d="M187.4,261.9c-0.6,0-1.2-0.1-1.2,0.1c0,0.2,0.5,0.6,1.2,0.6c0.6,0,1.2-0.4,1.2-0.6
						C188.5,261.8,188,261.9,187.4,261.9z"/>
					<g>
						<path class="st19" d="M184.1,260.4c-0.1,0-0.2,0.1-0.2,0.1c0,0.1,0,0.2,0.1,0.2c0.1,0,1.5,0.4,3,0.4c1.4,0,2.9-0.4,3-0.4
							c0.1,0,0.2-0.1,0.1-0.2c0-0.1-0.1-0.2-0.2-0.1c0,0-1.5,0.4-2.9,0.4C185.6,260.8,184.2,260.4,184.1,260.4
							C184.1,260.4,184.1,260.4,184.1,260.4z"/>
					</g>
					<g>
						<path class="st41" d="M184.7,251.2c0.4-0.2-0.2-0.6-0.9-0.6c-0.7,0-2.6-0.1-3.6,0.8c0,0,0.1,0.1,0.5-0.1
							C181.2,251.2,184.4,251.3,184.7,251.2z"/>
						<path class="st41" d="M188.8,251.2c-0.2-0.2,0.1-0.6,0.6-0.6c0.5,0,1.8-0.1,2.4,0.8c0,0-0.1,0.1-0.4-0.1
							C191.2,251.2,189,251.3,188.8,251.2z"/>
					</g>
				</g>
				<path class="st16" d="M174.3,252.1c0,0.4,0,0.7,0.1,1c0,0.1,0,0.2,0,0.4c-0.2,6,0.4,10.6,7.2,13c1.2,0.2,5.6,1.1,7.2-0.7
					c1.9-2.1,3.4-7.6,3.4-9.5v-0.1c0-1.9-0.3-2.4-0.3-3.5c0-0.8,0.4-3.5,0.5-4.6c0-1.9-0.7-4.2-1.5-5.8c-1.6-3.1-4.3-4.9-8.4-4.9
					C172.8,237.5,174,245.6,174.3,252.1z"/>
				<linearGradient id="SVGID_12_" gradientUnits="userSpaceOnUse" x1="181.2892" y1="238.25" x2="181.2892" y2="271.1786">
					<stop  offset="0" style="stop-color:#4D5DEA"/>
					<stop  offset="0.327" style="stop-color:#4136E9"/>
					<stop  offset="1" style="stop-color:#420085"/>
				</linearGradient>
				<path class="st42" d="M180.2,242.9c4,3.5,11.2,3.4,12,7.6l-0.3,1.9c0,0,1-2.3,1.3-3.1c0.5-1.8-0.6-5.4-2.7-8.1
					c-4-5-12.3-6.1-15.8-1.4c0,0-4.8-1-5.4,6.4c-0.4,5.1,5.2,22.8,5.2,22.8s1.3-1.1,1.7-3c1.7-7.1,3.3-19.5,4.2-24.4"/>
				<path class="st43" d="M177.6,247.1C177.6,247.1,177.6,247.1,177.6,247.1"/>
				<path class="st19" d="M183.7,266.8c-1.9-0.3-5.3-1.4-6.9-3.2c0,0,0.4,1.8,2.1,2.7C180.6,267.1,183.7,266.8,183.7,266.8z"/>
			</g>
			<path class="st16" d="M185,439.5l-0.2,4.3c0,0.6,0.5,1.1,1.1,1.1h11.6c1.1,0,2.5-1.9,1.6-2.5c-1.9-1.2-5.4-2.9-7.4-3.8
				c-0.2-0.1-1.9-35.3-3.6-35.3C186.5,403.3,185,439.5,185,439.5z"/>
			<path class="st16" d="M161.2,439.2c0,0,0,0.2,0,0.5v3.5c0,0.4,1.9,2,2.8,2.3c2.9,1.2,7.4,0.5,7.7-0.5c0.2-1-2.8-4.6-2.8-4.6
				c-0.8-1-1.3-1.9-1.3-1.9s-1.6-35.2-3.2-35.2C162.5,403.4,161.2,439.2,161.2,439.2z"/>
			<linearGradient id="SVGID_13_" gradientUnits="userSpaceOnUse" x1="190.0079" y1="439.3126" x2="194.8486" y2="447.6969">
				<stop  offset="0" style="stop-color:#DD697B"/>
				<stop  offset="1" style="stop-color:#BC2773"/>
			</linearGradient>
			<path class="st44" d="M199.4,444.9h-14.2c-0.2,0-0.3-0.1-0.3-0.3v-2.2c2.9,0,9.4,0.1,9.8,0c0.4-0.1,1.7-1.5,1.9-1.9
				c1.1,0.6,2.8,1.6,3.6,2.2C201.1,443.4,200.6,444.9,199.4,444.9z"/>
			<linearGradient id="SVGID_14_" gradientUnits="userSpaceOnUse" x1="164.0838" y1="439.7681" x2="168.3623" y2="447.1786">
				<stop  offset="0" style="stop-color:#DD697B"/>
				<stop  offset="1" style="stop-color:#BC2773"/>
			</linearGradient>
			<path class="st45" d="M163.9,445.6c-0.8-0.3-2.8-2-2.8-2.3v-1.8l2.8,1.7c2-2.1,5.6-2.7,6.5-0.9l0,0c0.7,1.1,1.3,2.2,1.2,2.8
				C171.4,446.1,166.9,446.9,163.9,445.6z"/>
			<linearGradient id="SVGID_15_" gradientUnits="userSpaceOnUse" x1="155.413" y1="344.112" x2="204.1851" y2="428.5877">
				<stop  offset="0" style="stop-color:#4D5DEA"/>
				<stop  offset="0.327" style="stop-color:#4136E9"/>
				<stop  offset="1" style="stop-color:#420085"/>
			</linearGradient>
			<path class="st46" d="M164.6,338.8c0,0-2.4,24.6-2.6,40.9c0,0-1.7,10.8-2.2,22.4c-0.5,11.7,1.2,33.7,1.2,33.7h7.1l12.1-91.6h3.2
				v91.6h8.3c0,0,4.9-36.8,8-97H164.6z"/>
			<linearGradient id="SVGID_16_" gradientUnits="userSpaceOnUse" x1="160.4035" y1="274.6721" x2="198.548" y2="340.7403">
				<stop  offset="0" style="stop-color:#DD697B"/>
				<stop  offset="1" style="stop-color:#BC2773"/>
			</linearGradient>
			<path class="st47" d="M200.3,339.8l-5.4-41.3c1.8-2.3,3.6-7.5,3.6-9.8c0-1.2-1.6-5.3-3.3-9.2c-0.5-1.2,1-2.1,1-2.1
				s-0.9-3.6-2.9-5.7c-1.6-1.6-8.3-1.6-8.3-1.6c3.9,1.1,4.8,6.5,4.2,6.9c-0.6,0.4-8,0.3-9.4,0c-1.4-0.3-3.9-7-7.5-7.5
				c0,0-2.5-0.3-5.2,1.4c-2.7,1.7-3.8,6.4-3.8,6.4s10-0.3,9.3,5.6c0,0.1,0,0.3-0.1,0.4c-0.8,6-5,16.5-5,16.5s1.7,6.3,1.7,13.3
				c0,7-6,26.6-6,26.6H200.3z"/>
			<path class="st16" d="M166.5,348c3-0.5,0.3-22.5-0.7-28.6c-1-6.2-2.5-12.6-5.8-12.1c-3.3,0.5-2.7,7.1-1.7,13.3
				C159.2,326.7,163.5,348.5,166.5,348z"/>
			<path class="st16" d="M165.7,342.3c-3.5,0.3-2.3,6.5-1.8,8.6c0.8,3.4,4.3,6.8,5.6,6.5s-1-8-0.7-8.3c0.2-0.3,1.7,3.3,2.9,2.9
				c1.2-0.4-0.1-5.4-1.4-7.2C169,342.9,168,342.1,165.7,342.3z"/>
			<g>
				<path class="st16" d="M219.6,322c-0.9,3.4,5.1,4.2,7.2,4.6c2.7,0.5,6.3-2.8,6.5-4.2c0.2-1.4-6.3-1.1-6.6-1.4
					c-0.2-0.3,3.9-0.2,3.9-1.5c0-1.3-5.2-1.7-7.3-1C221.3,319.1,220.2,319.9,219.6,322z"/>
			</g>
		</g>
		<path class="st16" d="M415.1,107.8c-3.4-2.4-8.3,2.2-13.1,9.1c-4.8,6.9-14.7,24-11.9,25.9c2.8,2,15.6-13,20.6-19.7
			C415.7,116.4,418.4,110.2,415.1,107.8z"/>
		<linearGradient id="SVGID_17_" gradientUnits="userSpaceOnUse" x1="381.0778" y1="177.1304" x2="416.5196" y2="238.5174">
			<stop  offset="0" style="stop-color:#C4DDF0"/>
			<stop  offset="0.999" style="stop-color:#99B5FA"/>
		</linearGradient>
		<path class="st48" d="M376.9,181.1h43.9c5.4,0,9.7,4.4,9.7,9.7v34c0,5.4-4.4,9.7-9.7,9.7h-43.9c-5.4,0-9.7-4.4-9.7-9.7v-34
			C367.1,185.4,371.5,181.1,376.9,181.1z"/>
		<g>
			<path class="st24" d="M451.5,107.1c-4.8,0-8.7-3.9-8.7-8.7v-34c0-4.8,3.9-8.7,8.7-8.7h43.9c4.8,0,8.7,3.9,8.7,8.7v34
				c0,4.8-3.9,8.7-8.7,8.7H451.5z"/>
			<path class="st35" d="M495.4,56.6c4.3,0,7.7,3.5,7.7,7.7v34c0,4.3-3.5,7.7-7.7,7.7h-43.9c-4.3,0-7.7-3.5-7.7-7.7v-34
				c0-4.3,3.5-7.7,7.7-7.7H495.4 M495.4,54.6h-43.9c-5.4,0-9.7,4.4-9.7,9.7v34c0,5.4,4.4,9.7,9.7,9.7h43.9c5.4,0,9.7-4.4,9.7-9.7
				v-34C505.1,59,500.8,54.6,495.4,54.6L495.4,54.6z"/>
		</g>
		<g>
			<path class="st16" d="M385.4,178.3c3,0.5,7.6-21.1,8.7-27.2c1.1-6.1,1.8-12.7-1.5-13.3c-3.3-0.6-4.9,5.8-6,11.9
				C385.5,155.9,382.4,177.8,385.4,178.3z"/>
			<g>
				<path class="st16" d="M390.1,176.5c-0.6-2.1-1.4-3.2-3.5-3.8c-3.4-0.9-4.7,6.2-4.9,8.3c-0.2,1.9,2.3,6.1,3.6,6.2
					s2.1-7.1,2.5-7.1c0.3-0.1,0.5,0.3,0.5,0.8h2C390.4,179.4,390.4,177.6,390.1,176.5z"/>
			</g>
		</g>
		<g>
			<g>
				<linearGradient id="SVGID_18_" gradientUnits="userSpaceOnUse" x1="290.1051" y1="430.3413" x2="298.9888" y2="445.7285">
					<stop  offset="0" style="stop-color:#DD697B"/>
					<stop  offset="1" style="stop-color:#BC2773"/>
				</linearGradient>
				<rect x="282.9" y="434.5" class="st49" width="23.2" height="7.1"/>
				<linearGradient id="SVGID_19_" gradientUnits="userSpaceOnUse" x1="233.6949" y1="430.3414" x2="242.5786" y2="445.7284">
					<stop  offset="0" style="stop-color:#DD697B"/>
					<stop  offset="1" style="stop-color:#BC2773"/>
				</linearGradient>
				<rect x="226.5" y="434.5" class="st50" width="23.2" height="7.1"/>
			</g>
			<linearGradient id="SVGID_20_" gradientUnits="userSpaceOnUse" x1="259.2794" y1="315.8462" x2="273.4042" y2="340.311">
				<stop  offset="0" style="stop-color:#DD697B"/>
				<stop  offset="1" style="stop-color:#BC2773"/>
			</linearGradient>
			<rect x="244.2" y="324.5" class="st51" width="44.2" height="7.1"/>
			<linearGradient id="SVGID_21_" gradientUnits="userSpaceOnUse" x1="231.4429" y1="323.1742" x2="301.2407" y2="444.0675">
				<stop  offset="0" style="stop-color:#DD697B"/>
				<stop  offset="1" style="stop-color:#BC2773"/>
			</linearGradient>
			<path class="st52" d="M306.1,328.4h-79.5c-8.6,0-15.5,7-15.5,15.5v79.5c0,8.6,7,15.5,15.5,15.5h79.5c8.6,0,15.5-7,15.5-15.5
				v-79.5C321.6,335.3,314.6,328.4,306.1,328.4z"/>
			
				<ellipse transform="matrix(0.9732 -0.2298 0.2298 0.9732 -81.013 71.455)" class="st26" cx="266.3" cy="383.6" rx="48.5" ry="48.5"/>
			
				<ellipse transform="matrix(0.3827 -0.9239 0.9239 0.3827 -190.0023 482.8833)" class="st0" cx="266.3" cy="383.6" rx="44.6" ry="44.6"/>
			<polyline class="st53" points="266.3,351.5 266.3,383.6 289.5,383.6 			"/>
			<g>
				<line class="st54" x1="266.3" y1="348.2" x2="266.3" y2="343.1"/>
				<line class="st54" x1="248.6" y1="353" x2="246.1" y2="348.5"/>
				<line class="st54" x1="235.7" y1="365.9" x2="231.2" y2="363.4"/>
				<line class="st54" x1="230.9" y1="383.6" x2="225.8" y2="383.6"/>
				<line class="st54" x1="235.7" y1="401.3" x2="231.2" y2="403.9"/>
				<line class="st54" x1="248.6" y1="414.3" x2="246.1" y2="418.7"/>
				<line class="st54" x1="266.3" y1="419" x2="266.3" y2="424.1"/>
				<line class="st54" x1="284" y1="414.3" x2="286.6" y2="418.7"/>
				<line class="st54" x1="297" y1="401.3" x2="301.4" y2="403.9"/>
				<line class="st54" x1="301.7" y1="383.6" x2="306.9" y2="383.6"/>
				<line class="st54" x1="297" y1="365.9" x2="301.4" y2="363.4"/>
				<line class="st54" x1="284" y1="353" x2="286.6" y2="348.5"/>
			</g>
			<path class="st29" d="M270.1,383.6c0-2.1-1.7-3.8-3.8-3.8c-2.1,0-3.8,1.7-3.8,3.8c0,2.1,1.7,3.8,3.8,3.8
				C268.4,387.4,270.1,385.7,270.1,383.6z"/>
		</g>
		<g>
			<path class="st55" d="M584.2,380.1c-5.1-0.2-6.9-28.6-6.8-40.7c0.2-12.1,2.5-21.6,8.8-21.4c6.2,0.2,8,9.9,7.4,22
				C593,352,589.3,380.2,584.2,380.1z"/>
			<path class="st55" d="M567.9,377.1c-5.1-0.2-6.9-28.6-6.8-40.7c0.2-12.1,2.5-21.6,8.8-21.4c6.2,0.2,8,9.9,7.4,22
				C576.7,349,573,377.3,567.9,377.1z"/>
			<g>
				<path class="st55" d="M572.3,436.9l0.2,4.5c0,0.6-0.5,1.2-1.2,1.2h-12.2c-1.1,0-1.6-1.4-0.7-2.1c1.8-1.4,4.4-3,6.8-3.4
					c0.2,0,1.9-38.3,3.8-38.3C570.7,398.8,572.3,436.9,572.3,436.9z"/>
				<path class="st55" d="M569.3,438.6c-4.5,0-5.8-40-5.8-49c0-9,0.7-18.5,5.8-18.5c5.1,0,5.8,9.5,5.8,18.5
					C575,398.5,573.8,438.6,569.3,438.6z"/>
				<path class="st56" d="M572.5,437.7v4.3c0,0.4-0.3,0.8-0.8,0.8H558c-1.2,0-1.7-1.5-0.8-2.2c2-1.5,5.2-3,7.5-4.1
					c0.6,0.5,1.4,2,2.4,2.2C568.2,438.8,572.5,437.7,572.5,437.7z"/>
			</g>
			<g>
				<path class="st55" d="M592.5,438.9c0,0,0,0.2,0,0.6v3.7c0,0.4-0.9,2.1-1.8,2.4c-3.1,1.3-9,0.5-9.2-0.5c-0.2-1.1,1.4-3.4,2.7-5.1
					c0,0,0,0,0,0c0.9-1.1,1.6-1.9,1.6-1.9s1.7-37.2,3.4-37.1C591.1,401.1,592.5,438.9,592.5,438.9z"/>
				<path class="st55" d="M589.5,440.5c-4.5,0.4-8.7-39.4-9.5-48.3c-0.8-9-1-18.5,4.1-18.9c5.1-0.5,6.6,8.9,7.4,17.9
					C592.3,400.1,594,440.1,589.5,440.5z"/>
				<path class="st56" d="M592.5,439.4v3.7c0,0.4-0.9,2.1-1.8,2.4c-3.1,1.3-9,0.5-9.2-0.5c-0.2-1.1,1.4-3.4,2.7-5.1c0,0,0,0,0,0
					c0.6-0.5,3.9-0.2,4.4,0c0.6,0.3,1.8,1,2.1,1C591,441,592.5,439.4,592.5,439.4z"/>
			</g>
			<g>
				<path class="st55" d="M480.3,286.8c-0.1-3.3,23.9-4.7,30.7-4.9s14,0.2,14,3.8c0.1,3.7-7.1,4.3-13.8,4.5
					C504.4,290.4,480.4,290,480.3,286.8z"/>
				<path class="st55" d="M516.2,288.9c-1.7-3.2,16.1-14.9,24-19.3c7.9-4.4,14.9-6.5,17-2.5c2.1,3.9-3.5,8.6-11.6,12.7
					C537.6,283.9,518,292.2,516.2,288.9z"/>
				<g>
					<path class="st55" d="M486.4,286.2c0.5,1.9-1.1,3.2-2.7,3.9c-1.8,0.7-4,0.3-5.5-1c-0.6-0.6-1.1-1.3-1.9-1.6
						c-0.5-0.2-1.1-0.1-1.6-0.1c-1.1,0.1-2.2,0-3.3,0c-0.4,0-1-0.2-1-0.6c0-0.4,0.5-0.6,1-0.7c2.8-0.5,5.6-0.9,8.3-1.5
						c-0.8-0.1-1.5-0.3-2.2-0.6c-0.3-0.1-0.5-0.3-0.6-0.6c0-0.2,0.1-0.5,0.3-0.6c0.2-0.1,0.4-0.2,0.6-0.2c1.1-0.2,2.3-0.1,3.4,0
						c1.2,0.1,2.7,0.3,3.7,1C485.7,284.1,486.2,285.2,486.4,286.2z"/>
				</g>
			</g>
			<linearGradient id="SVGID_22_" gradientUnits="userSpaceOnUse" x1="529.9815" y1="257.3454" x2="529.9815" y2="291.6915">
				<stop  offset="0" style="stop-color:#C4DDF0"/>
				<stop  offset="0.999" style="stop-color:#99B5FA"/>
			</linearGradient>
			<path class="st57" d="M562.8,257.3l-0.9,6.7l-4.2-2l-1.3-0.6c0,0-5.1,2.5-6.8,3.3c-1.7,0.8-16,6.9-28.5,15.7c0,0-28.3,2-30,2.3
				c-1.6,0.3-2.4,0.8-2.4,0.8l-2.4,0.3v6.3h2.5c0,0,1.9,1.4,5.9,1.5c4,0.1,20.1,0.4,27.4-1.4c7.3-1.8,28.3-7.8,28.3-7.8l18.9-4.8
				l3.9-17.7L562.8,257.3z"/>
			<path class="st55" d="M593.1,328.7l-29.7-4.9l-8.3-42.5l-4-15.6l13-9.3l9.6-0.9c5.4-0.5,9,2.8,10.4,8.1c0,0,8,28.4,8.8,38
				C594.1,316.5,593.1,328.7,593.1,328.7z"/>
			<g>
				<path class="st55" d="M565.5,248.4l3,8.3c0,0-1.8,4.1-7,5.6c-2.8,0.8-3.8-0.3-3.8-0.3l-1.1-3.9L565.5,248.4z"/>
				<g>
					<path class="st58" d="M550.5,242.6c-1,0.6-0.4,4.3-0.2,4.2c0.2-0.1,0-3.1,0.8-3.8C551.9,242.3,550.5,242.6,550.5,242.6z"/>
					<path class="st58" d="M546.5,243.8c0.8,0.5,1.1,3.3,1.1,3.5c0,0.2-1.2-3.1-1.2-3.1L546.5,243.8z"/>
					<g>
						<path class="st39" d="M555,241.4l0.1,0.4c0,0-4.5,1.3-4.5,1.3s-0.3-0.3-0.2-0.5C551.1,241.6,555,241.4,555,241.4z"/>
						<path class="st39" d="M543.3,244.8l0.1,0.4c0,0,3.1-0.9,3.1-1c0,0,0-0.4-0.2-0.5C545.6,243.2,543.3,244.8,543.3,244.8z"/>
						<path class="st39" d="M554.2,244.7c0.1,0.5-0.1,1-0.6,1.2c-0.5,0.1-1-0.1-1.2-0.6c-0.1-0.5,0.1-1,0.6-1.2
							C553.5,243.9,554,244.2,554.2,244.7z"/>
						<path class="st39" d="M554.9,243.7c-0.5-0.1-1.3-0.2-2,0c-0.7,0.2-1.3,0.7-1.7,1.1L554.9,243.7z"/>
						<path class="st39" d="M546.8,246.8c0.1,0.5-0.1,1-0.6,1.2c-0.5,0.1-1-0.1-1.2-0.6c-0.1-0.5,0.1-1,0.6-1.2
							C546.1,246,546.6,246.3,546.8,246.8z"/>
						<path class="st39" d="M546.9,246c-0.4-0.2-0.9-0.3-1.5-0.1c-0.5,0.2-0.9,0.6-1.1,0.9L546.9,246z"/>
					</g>
					<path class="st59" d="M549.8,250.8c0.9-0.3,1.6-0.5,1.7-0.3c0.1,0.2-0.6,0.8-1.5,1c-0.9,0.3-1.7,0.2-1.8-0.1
						C548.2,251.2,548.9,251.1,549.8,250.8z"/>
					<path class="st58" d="M550.9,254.5c0.7-0.2,1.2-0.4,1.2-0.2c0.1,0.2-0.4,0.7-1,0.9c-0.7,0.2-1.3-0.1-1.4-0.2
						C549.7,254.8,550.2,254.7,550.9,254.5z"/>
					<g>
						<path class="st58" d="M547.4,253.9c-0.1,0-0.2,0.1-0.2,0.2c0,0.1,0.1,0.2,0.2,0.2c0.1,0,1.7,0,3.2-0.4c1.5-0.4,2.9-1.3,3-1.3
							c0.1-0.1,0.1-0.2,0.1-0.3c-0.1-0.1-0.2-0.1-0.3-0.1c0,0-1.4,0.9-2.9,1.3C549.1,253.9,547.5,253.9,547.4,253.9
							C547.5,253.9,547.5,253.9,547.4,253.9z"/>
					</g>
				</g>
				<path class="st55" d="M564.5,240.3c0.1,0.4,0.2,0.7,0.3,1.1c0,0.1,0.1,0.2,0.1,0.4c2.1,6.1,0,13.9-5.7,16.6c0,0,0,0-0.1,0.1
					c0,0-0.1,0-0.2,0.1c-1.2,0.5-5.8,2.3-8,0.9c-2.6-1.6-5.6-5.1-6.4-7.9c-0.8-2.8-0.5-3.6-0.8-4.7c-0.3-0.9-1.5-3.4-1.9-4.6
					c-1.7-5.5,0.5-12.1,7.1-14C558.8,225.2,562.8,233.5,564.5,240.3z"/>
				<linearGradient id="SVGID_23_" gradientUnits="userSpaceOnUse" x1="551.0483" y1="229.0312" x2="551.0483" y2="245.2524">
					<stop  offset="0" style="stop-color:#5B2A8B"/>
					<stop  offset="0.1693" style="stop-color:#4B2784"/>
					<stop  offset="0.4267" style="stop-color:#38247D"/>
					<stop  offset="0.6972" style="stop-color:#2E2378"/>
					<stop  offset="1" style="stop-color:#2A2277"/>
				</linearGradient>
				<path class="st60" d="M560.1,242.2c-1-2-3.1-2.4-4.6-3.9c-1.3-1.3-1.4-3.9-3.7-4c-0.6,0-1.1,0.2-1.7,0.4
					c-3.2,1.3-6.2,3.3-9.6,3.4c-1.4,0-2.8-0.3-3.9-1.1c-1.1-0.8-1.8-2.3-1.5-3.6c0.3-1.3,1.7-2.4,3-2.2c-0.4-1.1,0.3-2.4,1.4-2.9
					s2.3-0.4,3.4-0.1c0-0.9,0.6-1.8,1.3-2.4c0.7-0.6,1.6-0.9,2.6-1.1c1.3-0.2,2.9-0.1,3.7,1c0.7-1,1.8-1.6,3-1.7
					c1.2-0.1,2.4,0.4,3.2,1.3c0.1,0.1,0.2,0.3,0.4,0.3c0.3,0.2,0.7,0,1.1-0.1c1-0.3,2.1-0.1,2.9,0.5c0.6,0.4,1,1.1,1.4,1.7
					c1.5,2.5,2.7,5.3,3.6,8.1c1.5,4.7,1.2,9.6,0.2,14.4l-4.5-8.1C561.6,242,560.1,242.2,560.1,242.2z"/>
				<g>
					<path class="st55" d="M561.6,241.2c0.7-0.4,2.4-1.6,2.9,1.3c0.8,4.9-2.1,5.5-2.1,5.5c0-0.7-0.1-1.8-0.2-2.9
						c-0.9-0.2-0.1-1.1-0.2-1.7c0-0.1,0-0.2-0.1-0.4C561.9,242.4,561.7,241.8,561.6,241.2z"/>
					<path class="st58" d="M561.9,243c0,0,0.6-1.1,1.4-1c0.8,0.1,0.7,1.8,0.5,2.9c-0.3,1.1-0.8,1.3-1,1.1c-0.2-0.2,0.8-1.1,0.3-1.4
						c-0.5-0.3-1-0.3-1-0.5C562,243.8,561.9,243,561.9,243z"/>
					<linearGradient id="SVGID_24_" gradientUnits="userSpaceOnUse" x1="560.752" y1="229.0312" x2="560.752" y2="245.2525">
						<stop  offset="0" style="stop-color:#5B2A8B"/>
						<stop  offset="0.1693" style="stop-color:#4B2784"/>
						<stop  offset="0.4267" style="stop-color:#38247D"/>
						<stop  offset="0.6972" style="stop-color:#2E2378"/>
						<stop  offset="1" style="stop-color:#2A2277"/>
					</linearGradient>
					<path class="st61" d="M559.2,239.7c0.6,1.2,0.9,2.6,1.2,3.9c0.2,0.7,0.3,1.5,0.6,2.2c0.1,0.4,0.4,1.6,0.8,1.7
						c0.7,0.1,0.1-3.5,0.1-3.9c0-0.3-0.1-3-0.3-3C561.7,240.5,559.2,239.7,559.2,239.7z"/>
				</g>
				<path class="st58" d="M555.5,259.5c3.1-0.7,6.2-4.8,6.9-6.5c0.7-1.7,0.3-5.3,0.3-5.3s0.9-0.1,1.3-1.3c0,0,0.4,1.5-0.1,2.2
					c-0.4,0.7-0.8,0.9-0.8,1.3c0,0.4,0.7,5.3-1.5,7.4C559.6,259.4,555.5,259.5,555.5,259.5z"/>
			</g>
			<linearGradient id="SVGID_25_" gradientUnits="userSpaceOnUse" x1="577.5714" y1="327.4447" x2="577.5714" y2="437.5619">
				<stop  offset="0" style="stop-color:#5B2A8B"/>
				<stop  offset="0.1693" style="stop-color:#4B2784"/>
				<stop  offset="0.4267" style="stop-color:#38247D"/>
				<stop  offset="0.6972" style="stop-color:#2E2378"/>
				<stop  offset="1" style="stop-color:#2A2277"/>
			</linearGradient>
			<path class="st62" d="M594.7,330.9c0,0-2.2,34.9-2.2,38.7c0,3.8,1.7,53.5,0.7,67.3c0,0-3.5,1.5-8.6,0c0,0-5-44.6-5.4-55.3
				c-0.4-10.1-2.3-31.1-2.3-31.1s-1.1,14.4-0.8,19.2c0.2,4.8,0.1,50.4-2.3,66.4c0,0-4.7,1.3-8.8-0.8c0,0-2.1-54.3-2.9-65
				c-0.8-10.7-1.5-41.6-1.5-41.6l33-1.2L594.7,330.9z"/>
			<linearGradient id="SVGID_26_" gradientUnits="userSpaceOnUse" x1="572.6622" y1="254.3391" x2="572.6622" y2="332.7285">
				<stop  offset="0" style="stop-color:#C4DDF0"/>
				<stop  offset="0.999" style="stop-color:#99B5FA"/>
			</linearGradient>
			<path class="st63" d="M595.4,330.8c-24.2,4.4-36.1,0-36.1,0s-2.4-34.4-3.7-40.1c-1.4-5.7-6.1-18-5.5-22.3
				c0.7-4.3,3.5-5.7,5.7-6.5c0,0-0.1-0.8,1.5-1.5l0.5,1.9l3.6,3.1l1.1-6.3l0.3-1.6l0.8,1.2c1.9-0.7,4-2,5.9-2.7
				c3.3-1.1,6.5-1.5,8.3-1.5c5.3-0.1,9.7,13.6,13.7,33.8C595.6,308.3,595.4,330.8,595.4,330.8z"/>
			<polygon class="st64" points="555.6,259.9 557.8,262.2 557.8,262 557,259.4 556.4,259.5 			"/>
			<path class="st65" d="M562.8,257.3l2.7,3.9c1.7-2.4,4.1-5.4,4.1-5.4l-2.2-2.6L562.8,257.3z"/>
			<polygon class="st65" points="555.7,261.4 555.9,264 557.9,262.3 557.8,262.2 555.6,259.9 			"/>
			<g>
				<path class="st55" d="M565.8,300.6c-3.5-1.1,0.8-22.1,3.3-30.9c2.5-8.8,6-15.3,10.3-14c4.3,1.3,3.6,8.7,0.8,17.4
					C577.4,281.7,569.3,301.6,565.8,300.6z"/>
				<path class="st55" d="M524.6,302c-0.4-3.2,23.4-6.8,30.2-7.5c6.7-0.7,13.9-1,14.3,2.6c0.4,3.6-6.7,4.9-13.4,5.7
					C548.9,303.5,525,305.2,524.6,302z"/>
				<path class="st55" d="M530.8,301.2c0.7,3.8-6.1,4.3-8.5,4.4c-3.8,0.1-7.6-4-7.7-5.5c-0.1-1.5,7.9,0.2,8.2-0.1
					c0.3-0.4-3.9-0.9-3.9-2.2s5.7-1.4,8-0.6C529.2,297.9,530.3,298.8,530.8,301.2z"/>
			</g>
			<linearGradient id="SVGID_27_" gradientUnits="userSpaceOnUse" x1="529.4981" y1="279.9598" x2="584.0485" y2="279.9598">
				<stop  offset="0" style="stop-color:#C4DDF0"/>
				<stop  offset="0.999" style="stop-color:#99B5FA"/>
			</linearGradient>
			<path class="st66" d="M578.1,254.3c5.5,0.4,7,5.6,5.4,11.8c-1.6,6.1-10.2,30.8-14.3,34.9c-4.1,4.1-32.4,4.9-34.3,4.5
				c-1.9-0.4-2.2-1.2-2.2-1.2l-2.4-0.2c0,0-1.8-4.1,0.3-5.9l2.7-0.5c0,0,1-1.2,3-1.5c2-0.3,25.7-3.3,25.7-3.3s4.9-20.6,6.6-26.3
				C570.3,260.8,572.5,254,578.1,254.3z"/>
		</g>
		<path class="st22" d="M415.6,108.2c0.4,0.3,0.7,0.7,1,1.2c1.5,2.3,1.5,5.4,0.5,7.9c-1,2.6-2.8,4.7-4.8,6.7c-1.7,1.7-3.7,3.2-5.2,5
			c-1,1.4-2.2,2.6-3.3,3.9c-2,2.4-4,4.9-6.3,7.1c-2.1,2.1-0.9,2.3-2,9.1c-1.1,6.8-5.6,22.5-5.6,22.5s-3.3,0.6-6.4-0.2
			c0,0,1.3-17.9,3.1-26.1c1.8-8.2,6.8-15.8,10.6-22.1c2.2-3.6,4.6-7,7.4-10.2c2.2-2.5,4.7-5.8,8.4-5.7c0.6,0,1.3,0.2,1.9,0.4
			C415.1,107.8,415.4,108,415.6,108.2z"/>
		<path class="st16" d="M464.3,108.1c0.9-1.3,2.2-2.9,3.3-2.6c1.1,0.4-0.1,1.8-0.3,2.6c-0.3,0.8-0.6,0.9-0.6,0.9L464.3,108.1z"/>
		<polyline class="st67" points="457.8,83.6 466.8,92.5 489.1,70.2 		"/>
	</g>
</g>
</svg>
