<svg id="Layer_1" data-name="Layer 1" xmlns="http://www.w3.org/2000/svg" viewBox="0 0 940.9 599.36"><defs><style>.cls-1{fill:#1881ff;}</style></defs><path class="cls-1" d="M652.56,478.84c10.8,36.32,25.27,69.54,45.88,99.89,8,11.74,16.51,23.09,26.71,33,2.5,2.44,3.8,4.16-.2,6.58-33.41,20.18-66.47,40.72-104.31,52.43C477.86,715,322.27,645.26,260.7,509c-74.31-164.48,10.38-356.18,183-409.1,94-28.82,184.63-17.44,266.6,39.3,53.8,37.24,85.73,90.85,105.29,152.39,8.95,28.15,13.08,57.27,17.95,86.28,5.93,35.29,15.73,69.38,35.92,99.58,30,44.84,73.26,61.38,125.36,57.2,41.77-3.35,76-22.17,103-54.11,3.52-4.17,4.76-4.16,7.39.77q33.71,62.94,68,125.55c2.82,5.14.64,6.91-2.7,9.58-55.89,44.87-119.57,67.63-191.31,67.4-57-.18-111-12.28-159.91-42.63C759.29,603.93,722.21,549.1,700.19,483c-9.86-29.56-14.49-60.22-19.45-90.86-4.8-29.67-12.94-58.41-27.15-85.17-27-50.83-69.68-74.29-126.7-72.32-70.48,2.43-132.44,56.62-143.27,125C372,432.93,412,502.38,480.34,527.57c59.35,21.89,122.59,5.9,166-42C648.09,483.67,649.88,481.75,652.56,478.84Z" transform="translate(-233.67 -84.64)"/><path class="cls-1" d="M609.9,446.28c-29.24-14.3-58.39-28.81-87.8-42.75-6.92-3.27-9-6.5-7.35-14.44,6.27-31.08,11.56-62.36,18.78-93.78,3,12.79,6,25.57,8.92,38.37,1.37,6,3.19,11.93,3.84,18,2.32,21.68,12.06,39,28.08,53.77,11.17,10.28,20.82,22.23,31,33.58,1.8,2,5.08,3.39,4.32,7.06Z" transform="translate(-233.67 -84.64)"/><path d="M703.86,384.23l.51,0-.29.14A2.65,2.65,0,0,1,703.86,384.23Z" transform="translate(-233.67 -84.64)"/></svg>